<mxfile host="Electron" modified="2023-11-08T16:01:04.230Z" agent="Mozilla/5.0 (Windows NT 10.0; Win64; x64) AppleWebKit/537.36 (KHTML, like Gecko) draw.io/22.0.3 Chrome/114.0.5735.289 Electron/25.8.4 Safari/537.36" etag="kKT0NuGoUjY9IZQ9_k5l" version="22.0.3" type="device" pages="3">
  <diagram name="Use Case" id="TEfxO8_WFks7vH1Z_05f">
    <mxGraphModel dx="1884" dy="2202" grid="1" gridSize="10" guides="1" tooltips="1" connect="1" arrows="1" fold="1" page="1" pageScale="1" pageWidth="850" pageHeight="1100" math="0" shadow="0">
      <root>
        <mxCell id="0" />
        <mxCell id="1" parent="0" />
        <mxCell id="fiiKQI696LGkyhBKNYqE-8" value="" style="edgeStyle=orthogonalEdgeStyle;rounded=0;orthogonalLoop=1;jettySize=auto;html=1;endArrow=none;endFill=0;startArrow=none;startFill=0;" parent="1" source="fiiKQI696LGkyhBKNYqE-1" target="fiiKQI696LGkyhBKNYqE-5" edge="1">
          <mxGeometry relative="1" as="geometry" />
        </mxCell>
        <mxCell id="fiiKQI696LGkyhBKNYqE-9" value="" style="edgeStyle=orthogonalEdgeStyle;rounded=0;orthogonalLoop=1;jettySize=auto;html=1;endArrow=none;endFill=0;" parent="1" source="fiiKQI696LGkyhBKNYqE-1" target="fiiKQI696LGkyhBKNYqE-3" edge="1">
          <mxGeometry relative="1" as="geometry" />
        </mxCell>
        <mxCell id="N1Z85GW_m6jJml6EbSMK-8" style="edgeStyle=orthogonalEdgeStyle;rounded=0;orthogonalLoop=1;jettySize=auto;html=1;entryX=0;entryY=0.5;entryDx=0;entryDy=0;exitX=0.75;exitY=0;exitDx=0;exitDy=0;endArrow=none;endFill=0;startArrow=none;startFill=0;" parent="1" source="fiiKQI696LGkyhBKNYqE-1" target="N1Z85GW_m6jJml6EbSMK-1" edge="1">
          <mxGeometry relative="1" as="geometry" />
        </mxCell>
        <mxCell id="N1Z85GW_m6jJml6EbSMK-9" style="edgeStyle=orthogonalEdgeStyle;rounded=0;orthogonalLoop=1;jettySize=auto;html=1;entryX=0;entryY=0.5;entryDx=0;entryDy=0;exitX=0.5;exitY=0;exitDx=0;exitDy=0;endArrow=none;endFill=0;startArrow=none;startFill=0;" parent="1" source="fiiKQI696LGkyhBKNYqE-1" target="N1Z85GW_m6jJml6EbSMK-6" edge="1">
          <mxGeometry relative="1" as="geometry" />
        </mxCell>
        <mxCell id="fiiKQI696LGkyhBKNYqE-1" value="OrderController" style="html=1;whiteSpace=wrap;" parent="1" vertex="1">
          <mxGeometry x="220" y="-20" width="160" height="50" as="geometry" />
        </mxCell>
        <mxCell id="fiiKQI696LGkyhBKNYqE-3" value="Auth Manager" style="html=1;whiteSpace=wrap;" parent="1" vertex="1">
          <mxGeometry x="245" y="100" width="110" height="50" as="geometry" />
        </mxCell>
        <mxCell id="fiiKQI696LGkyhBKNYqE-15" value="" style="edgeStyle=orthogonalEdgeStyle;rounded=0;orthogonalLoop=1;jettySize=auto;html=1;endArrow=none;endFill=0;startArrow=none;startFill=0;" parent="1" source="fiiKQI696LGkyhBKNYqE-5" target="fiiKQI696LGkyhBKNYqE-12" edge="1">
          <mxGeometry relative="1" as="geometry" />
        </mxCell>
        <mxCell id="fiiKQI696LGkyhBKNYqE-5" value="OrderService" style="html=1;whiteSpace=wrap;" parent="1" vertex="1">
          <mxGeometry x="425" y="-20" width="160" height="50" as="geometry" />
        </mxCell>
        <mxCell id="fiiKQI696LGkyhBKNYqE-12" value="&amp;lt;&amp;lt; entity &amp;gt;&amp;gt;&lt;br&gt;Order" style="html=1;whiteSpace=wrap;" parent="1" vertex="1">
          <mxGeometry x="850" y="-20" width="130" height="50" as="geometry" />
        </mxCell>
        <mxCell id="fiiKQI696LGkyhBKNYqE-35" style="edgeStyle=orthogonalEdgeStyle;rounded=0;orthogonalLoop=1;jettySize=auto;html=1;endArrow=none;endFill=0;startArrow=none;startFill=0;" parent="1" source="fiiKQI696LGkyhBKNYqE-33" target="fiiKQI696LGkyhBKNYqE-1" edge="1">
          <mxGeometry relative="1" as="geometry" />
        </mxCell>
        <mxCell id="fiiKQI696LGkyhBKNYqE-33" value="Router" style="html=1;whiteSpace=wrap;" parent="1" vertex="1">
          <mxGeometry x="70" y="-20" width="110" height="50" as="geometry" />
        </mxCell>
        <mxCell id="N1Z85GW_m6jJml6EbSMK-4" value="" style="edgeStyle=orthogonalEdgeStyle;rounded=0;orthogonalLoop=1;jettySize=auto;html=1;endArrow=none;endFill=0;startArrow=none;startFill=0;" parent="1" source="N1Z85GW_m6jJml6EbSMK-1" target="N1Z85GW_m6jJml6EbSMK-3" edge="1">
          <mxGeometry relative="1" as="geometry" />
        </mxCell>
        <mxCell id="N1Z85GW_m6jJml6EbSMK-1" value="OrderStatusService" style="html=1;whiteSpace=wrap;" parent="1" vertex="1">
          <mxGeometry x="425" y="-135" width="160" height="50" as="geometry" />
        </mxCell>
        <mxCell id="N1Z85GW_m6jJml6EbSMK-10" style="edgeStyle=orthogonalEdgeStyle;rounded=0;orthogonalLoop=1;jettySize=auto;html=1;entryX=0.545;entryY=-0.039;entryDx=0;entryDy=0;exitX=1;exitY=0.5;exitDx=0;exitDy=0;entryPerimeter=0;endArrow=none;endFill=0;startArrow=none;startFill=0;" parent="1" source="N1Z85GW_m6jJml6EbSMK-3" target="fiiKQI696LGkyhBKNYqE-12" edge="1">
          <mxGeometry relative="1" as="geometry" />
        </mxCell>
        <mxCell id="N1Z85GW_m6jJml6EbSMK-3" value="&amp;lt;&amp;lt; entity &amp;gt;&amp;gt;&lt;br&gt;OrderStatus" style="html=1;whiteSpace=wrap;" parent="1" vertex="1">
          <mxGeometry x="645" y="-135" width="130" height="50" as="geometry" />
        </mxCell>
        <mxCell id="N1Z85GW_m6jJml6EbSMK-11" style="edgeStyle=orthogonalEdgeStyle;rounded=0;orthogonalLoop=1;jettySize=auto;html=1;entryX=0.75;entryY=0;entryDx=0;entryDy=0;exitX=1;exitY=0.5;exitDx=0;exitDy=0;endArrow=none;endFill=0;startArrow=none;startFill=0;" parent="1" source="N1Z85GW_m6jJml6EbSMK-5" target="fiiKQI696LGkyhBKNYqE-12" edge="1">
          <mxGeometry relative="1" as="geometry" />
        </mxCell>
        <mxCell id="N1Z85GW_m6jJml6EbSMK-5" value="&amp;lt;&amp;lt; entity &amp;gt;&amp;gt;&lt;br&gt;OrderConfirmation" style="html=1;whiteSpace=wrap;" parent="1" vertex="1">
          <mxGeometry x="645" y="-250" width="130" height="50" as="geometry" />
        </mxCell>
        <mxCell id="N1Z85GW_m6jJml6EbSMK-7" style="edgeStyle=orthogonalEdgeStyle;rounded=0;orthogonalLoop=1;jettySize=auto;html=1;endArrow=none;endFill=0;startArrow=none;startFill=0;" parent="1" source="N1Z85GW_m6jJml6EbSMK-6" target="N1Z85GW_m6jJml6EbSMK-5" edge="1">
          <mxGeometry relative="1" as="geometry" />
        </mxCell>
        <mxCell id="N1Z85GW_m6jJml6EbSMK-6" value="OrderConfirmationService" style="html=1;whiteSpace=wrap;" parent="1" vertex="1">
          <mxGeometry x="425" y="-250" width="160" height="50" as="geometry" />
        </mxCell>
      </root>
    </mxGraphModel>
  </diagram>
  <diagram id="AtcV4aKFvXnSEoEWO6WB" name="Logical">
    <mxGraphModel dx="2590" dy="2615" grid="1" gridSize="10" guides="1" tooltips="1" connect="1" arrows="1" fold="1" page="1" pageScale="1" pageWidth="850" pageHeight="1100" math="0" shadow="0">
      <root>
        <mxCell id="0" />
        <mxCell id="1" parent="0" />
        <mxCell id="vGsgT0Gbf7s0fRSy6tzb-1" value="" style="edgeStyle=orthogonalEdgeStyle;rounded=0;orthogonalLoop=1;jettySize=auto;html=1;exitX=0.75;exitY=0;exitDx=0;exitDy=0;entryX=0;entryY=0.75;entryDx=0;entryDy=0;endArrow=none;endFill=0;" parent="1" source="vGsgT0Gbf7s0fRSy6tzb-5" target="vGsgT0Gbf7s0fRSy6tzb-8" edge="1">
          <mxGeometry relative="1" as="geometry" />
        </mxCell>
        <mxCell id="vGsgT0Gbf7s0fRSy6tzb-2" value="" style="edgeStyle=orthogonalEdgeStyle;rounded=0;orthogonalLoop=1;jettySize=auto;html=1;endArrow=none;endFill=0;" parent="1" source="vGsgT0Gbf7s0fRSy6tzb-5" target="vGsgT0Gbf7s0fRSy6tzb-6" edge="1">
          <mxGeometry relative="1" as="geometry" />
        </mxCell>
        <mxCell id="vGsgT0Gbf7s0fRSy6tzb-3" style="edgeStyle=orthogonalEdgeStyle;rounded=0;orthogonalLoop=1;jettySize=auto;html=1;entryX=0;entryY=0.75;entryDx=0;entryDy=0;exitX=0.5;exitY=0;exitDx=0;exitDy=0;endArrow=none;endFill=0;" parent="1" source="vGsgT0Gbf7s0fRSy6tzb-5" target="vGsgT0Gbf7s0fRSy6tzb-13" edge="1">
          <mxGeometry relative="1" as="geometry" />
        </mxCell>
        <mxCell id="vGsgT0Gbf7s0fRSy6tzb-4" style="edgeStyle=orthogonalEdgeStyle;rounded=0;orthogonalLoop=1;jettySize=auto;html=1;entryX=0;entryY=0.75;entryDx=0;entryDy=0;exitX=0.25;exitY=0;exitDx=0;exitDy=0;endArrow=none;endFill=0;" parent="1" source="vGsgT0Gbf7s0fRSy6tzb-5" target="vGsgT0Gbf7s0fRSy6tzb-19" edge="1">
          <mxGeometry relative="1" as="geometry" />
        </mxCell>
        <mxCell id="vGsgT0Gbf7s0fRSy6tzb-5" value="OrderController" style="html=1;whiteSpace=wrap;" parent="1" vertex="1">
          <mxGeometry x="143" y="85" width="160" height="50" as="geometry" />
        </mxCell>
        <mxCell id="vGsgT0Gbf7s0fRSy6tzb-21" style="edgeStyle=orthogonalEdgeStyle;rounded=0;orthogonalLoop=1;jettySize=auto;html=1;endArrow=none;endFill=0;" parent="1" source="vGsgT0Gbf7s0fRSy6tzb-6" target="vGsgT0Gbf7s0fRSy6tzb-20" edge="1">
          <mxGeometry relative="1" as="geometry" />
        </mxCell>
        <mxCell id="vGsgT0Gbf7s0fRSy6tzb-6" value="Auth Manager" style="html=1;whiteSpace=wrap;" parent="1" vertex="1">
          <mxGeometry x="168" y="175" width="110" height="50" as="geometry" />
        </mxCell>
        <mxCell id="vGsgT0Gbf7s0fRSy6tzb-7" value="" style="edgeStyle=orthogonalEdgeStyle;rounded=0;orthogonalLoop=1;jettySize=auto;html=1;endArrow=none;endFill=0;" parent="1" source="vGsgT0Gbf7s0fRSy6tzb-8" target="vGsgT0Gbf7s0fRSy6tzb-9" edge="1">
          <mxGeometry relative="1" as="geometry" />
        </mxCell>
        <mxCell id="vGsgT0Gbf7s0fRSy6tzb-26" style="edgeStyle=orthogonalEdgeStyle;rounded=0;orthogonalLoop=1;jettySize=auto;html=1;exitX=0;exitY=0.25;exitDx=0;exitDy=0;entryX=0.25;entryY=1;entryDx=0;entryDy=0;dashed=1;endArrow=block;endFill=0;" parent="1" source="vGsgT0Gbf7s0fRSy6tzb-8" target="vGsgT0Gbf7s0fRSy6tzb-22" edge="1">
          <mxGeometry relative="1" as="geometry" />
        </mxCell>
        <mxCell id="f30gwW_MKu_hwVnbn6P4-2" style="edgeStyle=orthogonalEdgeStyle;rounded=0;orthogonalLoop=1;jettySize=auto;html=1;entryX=0;entryY=0.5;entryDx=0;entryDy=0;endArrow=none;endFill=0;exitX=0.75;exitY=1;exitDx=0;exitDy=0;" parent="1" source="vGsgT0Gbf7s0fRSy6tzb-8" target="f30gwW_MKu_hwVnbn6P4-1" edge="1">
          <mxGeometry relative="1" as="geometry" />
        </mxCell>
        <mxCell id="f30gwW_MKu_hwVnbn6P4-8" style="edgeStyle=orthogonalEdgeStyle;rounded=0;orthogonalLoop=1;jettySize=auto;html=1;entryX=0;entryY=0.5;entryDx=0;entryDy=0;endArrow=none;endFill=0;exitX=0.25;exitY=1;exitDx=0;exitDy=0;" parent="1" source="vGsgT0Gbf7s0fRSy6tzb-8" target="f30gwW_MKu_hwVnbn6P4-7" edge="1">
          <mxGeometry relative="1" as="geometry" />
        </mxCell>
        <mxCell id="vGsgT0Gbf7s0fRSy6tzb-8" value="OrderService" style="html=1;whiteSpace=wrap;" parent="1" vertex="1">
          <mxGeometry x="490" y="-20" width="160" height="50" as="geometry" />
        </mxCell>
        <mxCell id="vGsgT0Gbf7s0fRSy6tzb-30" style="edgeStyle=orthogonalEdgeStyle;rounded=0;orthogonalLoop=1;jettySize=auto;html=1;exitX=0;exitY=0.25;exitDx=0;exitDy=0;entryX=0.25;entryY=1;entryDx=0;entryDy=0;dashed=1;endArrow=block;endFill=0;" parent="1" source="vGsgT0Gbf7s0fRSy6tzb-9" target="vGsgT0Gbf7s0fRSy6tzb-27" edge="1">
          <mxGeometry relative="1" as="geometry" />
        </mxCell>
        <mxCell id="vGsgT0Gbf7s0fRSy6tzb-9" value="&amp;lt;&amp;lt; entity &amp;gt;&amp;gt;&lt;br&gt;Order" style="html=1;whiteSpace=wrap;" parent="1" vertex="1">
          <mxGeometry x="900" y="-20" width="130" height="50" as="geometry" />
        </mxCell>
        <mxCell id="vGsgT0Gbf7s0fRSy6tzb-10" style="edgeStyle=orthogonalEdgeStyle;rounded=0;orthogonalLoop=1;jettySize=auto;html=1;endArrow=none;endFill=0;" parent="1" target="vGsgT0Gbf7s0fRSy6tzb-5" edge="1">
          <mxGeometry relative="1" as="geometry">
            <mxPoint x="95" y="110" as="sourcePoint" />
          </mxGeometry>
        </mxCell>
        <mxCell id="vGsgT0Gbf7s0fRSy6tzb-11" value="Router" style="html=1;whiteSpace=wrap;" parent="1" vertex="1">
          <mxGeometry x="5" y="85" width="110" height="50" as="geometry" />
        </mxCell>
        <mxCell id="vGsgT0Gbf7s0fRSy6tzb-12" value="" style="edgeStyle=orthogonalEdgeStyle;rounded=0;orthogonalLoop=1;jettySize=auto;html=1;endArrow=none;endFill=0;" parent="1" source="vGsgT0Gbf7s0fRSy6tzb-13" target="vGsgT0Gbf7s0fRSy6tzb-15" edge="1">
          <mxGeometry relative="1" as="geometry" />
        </mxCell>
        <mxCell id="vGsgT0Gbf7s0fRSy6tzb-24" style="edgeStyle=orthogonalEdgeStyle;rounded=0;orthogonalLoop=1;jettySize=auto;html=1;entryX=0.5;entryY=1;entryDx=0;entryDy=0;exitX=0;exitY=0.25;exitDx=0;exitDy=0;endArrow=block;endFill=0;dashed=1;" parent="1" source="vGsgT0Gbf7s0fRSy6tzb-13" target="vGsgT0Gbf7s0fRSy6tzb-22" edge="1">
          <mxGeometry relative="1" as="geometry" />
        </mxCell>
        <mxCell id="vGsgT0Gbf7s0fRSy6tzb-13" value="OrderStatusService" style="html=1;whiteSpace=wrap;" parent="1" vertex="1">
          <mxGeometry x="490" y="-110" width="160" height="50" as="geometry" />
        </mxCell>
        <mxCell id="vGsgT0Gbf7s0fRSy6tzb-14" style="edgeStyle=orthogonalEdgeStyle;rounded=0;orthogonalLoop=1;jettySize=auto;html=1;entryX=0.5;entryY=0;entryDx=0;entryDy=0;exitX=1;exitY=0.5;exitDx=0;exitDy=0;endArrow=none;endFill=0;" parent="1" source="vGsgT0Gbf7s0fRSy6tzb-15" target="vGsgT0Gbf7s0fRSy6tzb-9" edge="1">
          <mxGeometry relative="1" as="geometry" />
        </mxCell>
        <mxCell id="vGsgT0Gbf7s0fRSy6tzb-29" style="edgeStyle=orthogonalEdgeStyle;rounded=0;orthogonalLoop=1;jettySize=auto;html=1;exitX=0;exitY=0.25;exitDx=0;exitDy=0;entryX=0.5;entryY=1;entryDx=0;entryDy=0;dashed=1;endArrow=block;endFill=0;" parent="1" source="vGsgT0Gbf7s0fRSy6tzb-15" target="vGsgT0Gbf7s0fRSy6tzb-27" edge="1">
          <mxGeometry relative="1" as="geometry" />
        </mxCell>
        <mxCell id="vGsgT0Gbf7s0fRSy6tzb-15" value="&amp;lt;&amp;lt; entity &amp;gt;&amp;gt;&lt;br&gt;OrderStatus" style="html=1;whiteSpace=wrap;" parent="1" vertex="1">
          <mxGeometry x="810" y="-110" width="130" height="50" as="geometry" />
        </mxCell>
        <mxCell id="vGsgT0Gbf7s0fRSy6tzb-16" style="edgeStyle=orthogonalEdgeStyle;rounded=0;orthogonalLoop=1;jettySize=auto;html=1;entryX=0.75;entryY=0;entryDx=0;entryDy=0;exitX=1;exitY=0.5;exitDx=0;exitDy=0;endArrow=none;endFill=0;" parent="1" source="vGsgT0Gbf7s0fRSy6tzb-17" target="vGsgT0Gbf7s0fRSy6tzb-9" edge="1">
          <mxGeometry relative="1" as="geometry" />
        </mxCell>
        <mxCell id="vGsgT0Gbf7s0fRSy6tzb-28" style="edgeStyle=orthogonalEdgeStyle;rounded=0;orthogonalLoop=1;jettySize=auto;html=1;exitX=0;exitY=0.25;exitDx=0;exitDy=0;entryX=0.75;entryY=1;entryDx=0;entryDy=0;endArrow=block;endFill=0;dashed=1;" parent="1" source="vGsgT0Gbf7s0fRSy6tzb-17" target="vGsgT0Gbf7s0fRSy6tzb-27" edge="1">
          <mxGeometry relative="1" as="geometry" />
        </mxCell>
        <mxCell id="vGsgT0Gbf7s0fRSy6tzb-17" value="&amp;lt;&amp;lt; entity &amp;gt;&amp;gt;&lt;br&gt;OrderConfirmation" style="html=1;whiteSpace=wrap;" parent="1" vertex="1">
          <mxGeometry x="810" y="-200" width="130" height="50" as="geometry" />
        </mxCell>
        <mxCell id="vGsgT0Gbf7s0fRSy6tzb-18" style="edgeStyle=orthogonalEdgeStyle;rounded=0;orthogonalLoop=1;jettySize=auto;html=1;endArrow=none;endFill=0;" parent="1" source="vGsgT0Gbf7s0fRSy6tzb-19" target="vGsgT0Gbf7s0fRSy6tzb-17" edge="1">
          <mxGeometry relative="1" as="geometry" />
        </mxCell>
        <mxCell id="vGsgT0Gbf7s0fRSy6tzb-25" style="edgeStyle=orthogonalEdgeStyle;rounded=0;orthogonalLoop=1;jettySize=auto;html=1;exitX=0;exitY=0.25;exitDx=0;exitDy=0;entryX=1;entryY=0.5;entryDx=0;entryDy=0;endArrow=none;endFill=0;strokeColor=none;" parent="1" source="vGsgT0Gbf7s0fRSy6tzb-19" target="vGsgT0Gbf7s0fRSy6tzb-22" edge="1">
          <mxGeometry relative="1" as="geometry" />
        </mxCell>
        <mxCell id="vGsgT0Gbf7s0fRSy6tzb-19" value="OrderConfirmationService" style="html=1;whiteSpace=wrap;" parent="1" vertex="1">
          <mxGeometry x="469" y="-200" width="160" height="50" as="geometry" />
        </mxCell>
        <mxCell id="vGsgT0Gbf7s0fRSy6tzb-20" value="KeycloakClient" style="html=1;whiteSpace=wrap;" parent="1" vertex="1">
          <mxGeometry x="168" y="255" width="110" height="50" as="geometry" />
        </mxCell>
        <mxCell id="vGsgT0Gbf7s0fRSy6tzb-31" style="edgeStyle=orthogonalEdgeStyle;rounded=0;orthogonalLoop=1;jettySize=auto;html=1;entryX=0;entryY=0.25;entryDx=0;entryDy=0;exitX=1;exitY=0.25;exitDx=0;exitDy=0;endArrow=none;endFill=0;" parent="1" source="vGsgT0Gbf7s0fRSy6tzb-22" target="vGsgT0Gbf7s0fRSy6tzb-27" edge="1">
          <mxGeometry relative="1" as="geometry" />
        </mxCell>
        <mxCell id="f30gwW_MKu_hwVnbn6P4-5" style="edgeStyle=orthogonalEdgeStyle;rounded=0;orthogonalLoop=1;jettySize=auto;html=1;endArrow=none;endFill=0;" parent="1" source="vGsgT0Gbf7s0fRSy6tzb-22" target="f30gwW_MKu_hwVnbn6P4-3" edge="1">
          <mxGeometry relative="1" as="geometry" />
        </mxCell>
        <mxCell id="vGsgT0Gbf7s0fRSy6tzb-22" value="&amp;lt;&amp;lt; abstract &amp;gt;&amp;gt;&lt;br&gt;BaseService" style="html=1;whiteSpace=wrap;" parent="1" vertex="1">
          <mxGeometry x="306" y="-320" width="160" height="50" as="geometry" />
        </mxCell>
        <mxCell id="vGsgT0Gbf7s0fRSy6tzb-27" value="&amp;lt;&amp;lt; abstract &amp;gt;&amp;gt;&lt;br&gt;BaseEntity" style="html=1;whiteSpace=wrap;" parent="1" vertex="1">
          <mxGeometry x="647" y="-320" width="130" height="50" as="geometry" />
        </mxCell>
        <mxCell id="f30gwW_MKu_hwVnbn6P4-1" value="OrderDTO" style="html=1;whiteSpace=wrap;" parent="1" vertex="1">
          <mxGeometry x="647" y="100" width="130" height="50" as="geometry" />
        </mxCell>
        <mxCell id="f30gwW_MKu_hwVnbn6P4-6" style="edgeStyle=orthogonalEdgeStyle;rounded=0;orthogonalLoop=1;jettySize=auto;html=1;endArrow=none;endFill=0;" parent="1" source="f30gwW_MKu_hwVnbn6P4-3" target="f30gwW_MKu_hwVnbn6P4-4" edge="1">
          <mxGeometry relative="1" as="geometry" />
        </mxCell>
        <mxCell id="f30gwW_MKu_hwVnbn6P4-3" value="SessionManager" style="html=1;whiteSpace=wrap;" parent="1" vertex="1">
          <mxGeometry x="306" y="-420" width="160" height="50" as="geometry" />
        </mxCell>
        <mxCell id="f30gwW_MKu_hwVnbn6P4-4" value="Session" style="html=1;whiteSpace=wrap;" parent="1" vertex="1">
          <mxGeometry x="306" y="-510" width="160" height="50" as="geometry" />
        </mxCell>
        <mxCell id="f30gwW_MKu_hwVnbn6P4-7" value="OrderStatusUpdateDTO" style="html=1;whiteSpace=wrap;" parent="1" vertex="1">
          <mxGeometry x="647" y="170" width="130" height="50" as="geometry" />
        </mxCell>
        <mxCell id="4GThtcXBPosNBPm2upzD-1" style="edgeStyle=orthogonalEdgeStyle;rounded=0;orthogonalLoop=1;jettySize=auto;html=1;entryX=0.75;entryY=1;entryDx=0;entryDy=0;exitX=0;exitY=0.25;exitDx=0;exitDy=0;endArrow=block;endFill=0;dashed=1;" edge="1" parent="1" source="vGsgT0Gbf7s0fRSy6tzb-19" target="vGsgT0Gbf7s0fRSy6tzb-22">
          <mxGeometry relative="1" as="geometry">
            <mxPoint x="490" y="-87" as="sourcePoint" />
            <mxPoint x="450" y="-285" as="targetPoint" />
          </mxGeometry>
        </mxCell>
      </root>
    </mxGraphModel>
  </diagram>
  <diagram id="VAT3mY56ua2n9i9pOg9V" name="Implementation">
    <mxGraphModel dx="4660" dy="2831" grid="1" gridSize="10" guides="1" tooltips="1" connect="1" arrows="1" fold="1" page="1" pageScale="1" pageWidth="850" pageHeight="1100" math="0" shadow="0">
      <root>
        <mxCell id="0" />
        <mxCell id="1" parent="0" />
        <mxCell id="XG4IslfV-Pxhvq0_3yna-9" value="&lt;span style=&quot;font-weight: normal;&quot;&gt;&amp;lt;&amp;lt; entity &amp;gt;&amp;gt;&lt;/span&gt;&lt;br&gt;BaseEntity&lt;br&gt;&lt;span style=&quot;font-weight: normal;&quot;&gt;{abstract}&lt;/span&gt;" style="swimlane;fontStyle=1;align=center;verticalAlign=top;childLayout=stackLayout;horizontal=1;startSize=60;horizontalStack=0;resizeParent=1;resizeParentMax=0;resizeLast=0;collapsible=1;marginBottom=0;whiteSpace=wrap;html=1;" parent="1" vertex="1">
          <mxGeometry x="1250" y="-668" width="220" height="94" as="geometry" />
        </mxCell>
        <mxCell id="XG4IslfV-Pxhvq0_3yna-11" value="" style="line;strokeWidth=1;fillColor=none;align=left;verticalAlign=middle;spacingTop=-1;spacingLeft=3;spacingRight=3;rotatable=0;labelPosition=right;points=[];portConstraint=eastwest;strokeColor=inherit;" parent="XG4IslfV-Pxhvq0_3yna-9" vertex="1">
          <mxGeometry y="60" width="220" height="8" as="geometry" />
        </mxCell>
        <mxCell id="XG4IslfV-Pxhvq0_3yna-12" value="- __tablename__(): str" style="text;strokeColor=none;fillColor=none;align=left;verticalAlign=top;spacingLeft=4;spacingRight=4;overflow=hidden;rotatable=0;points=[[0,0.5],[1,0.5]];portConstraint=eastwest;whiteSpace=wrap;html=1;" parent="XG4IslfV-Pxhvq0_3yna-9" vertex="1">
          <mxGeometry y="68" width="220" height="26" as="geometry" />
        </mxCell>
        <mxCell id="XG4IslfV-Pxhvq0_3yna-25" style="edgeStyle=orthogonalEdgeStyle;rounded=0;orthogonalLoop=1;jettySize=auto;html=1;endArrow=block;endFill=0;" parent="1" source="XG4IslfV-Pxhvq0_3yna-26" target="XG4IslfV-Pxhvq0_3yna-9" edge="1">
          <mxGeometry relative="1" as="geometry">
            <mxPoint x="1360" y="-669" as="sourcePoint" />
          </mxGeometry>
        </mxCell>
        <mxCell id="XG4IslfV-Pxhvq0_3yna-26" value="&lt;span style=&quot;font-weight: normal;&quot;&gt;&amp;lt;&amp;lt; entity &amp;gt;&amp;gt;&lt;/span&gt;&lt;br&gt;TimeStamped&lt;br&gt;&lt;span style=&quot;font-weight: normal;&quot;&gt;{abstract}&lt;/span&gt;" style="swimlane;fontStyle=1;align=center;verticalAlign=top;childLayout=stackLayout;horizontal=1;startSize=60;horizontalStack=0;resizeParent=1;resizeParentMax=0;resizeLast=0;collapsible=1;marginBottom=0;whiteSpace=wrap;html=1;" parent="1" vertex="1">
          <mxGeometry x="1250" y="-518" width="220" height="120" as="geometry" />
        </mxCell>
        <mxCell id="XG4IslfV-Pxhvq0_3yna-28" value="- createdAt: timestamp" style="text;strokeColor=none;fillColor=none;align=left;verticalAlign=top;spacingLeft=4;spacingRight=4;overflow=hidden;rotatable=0;points=[[0,0.5],[1,0.5]];portConstraint=eastwest;whiteSpace=wrap;html=1;" parent="XG4IslfV-Pxhvq0_3yna-26" vertex="1">
          <mxGeometry y="60" width="220" height="26" as="geometry" />
        </mxCell>
        <mxCell id="XG4IslfV-Pxhvq0_3yna-29" value="- updatedAt: timestamp" style="text;strokeColor=none;fillColor=none;align=left;verticalAlign=top;spacingLeft=4;spacingRight=4;overflow=hidden;rotatable=0;points=[[0,0.5],[1,0.5]];portConstraint=eastwest;whiteSpace=wrap;html=1;" parent="XG4IslfV-Pxhvq0_3yna-26" vertex="1">
          <mxGeometry y="86" width="220" height="26" as="geometry" />
        </mxCell>
        <mxCell id="XG4IslfV-Pxhvq0_3yna-30" value="" style="line;strokeWidth=1;fillColor=none;align=left;verticalAlign=middle;spacingTop=-1;spacingLeft=3;spacingRight=3;rotatable=0;labelPosition=right;points=[];portConstraint=eastwest;strokeColor=inherit;" parent="XG4IslfV-Pxhvq0_3yna-26" vertex="1">
          <mxGeometry y="112" width="220" height="8" as="geometry" />
        </mxCell>
        <mxCell id="XG4IslfV-Pxhvq0_3yna-37" style="edgeStyle=orthogonalEdgeStyle;rounded=0;orthogonalLoop=1;jettySize=auto;html=1;endArrow=block;endFill=0;" parent="1" source="XG4IslfV-Pxhvq0_3yna-32" target="XG4IslfV-Pxhvq0_3yna-26" edge="1">
          <mxGeometry relative="1" as="geometry" />
        </mxCell>
        <mxCell id="XG4IslfV-Pxhvq0_3yna-32" value="&lt;span style=&quot;font-weight: normal;&quot;&gt;&amp;lt;&amp;lt; entity &amp;gt;&amp;gt;&lt;/span&gt;&lt;br&gt;TimeStampedWithId&lt;br&gt;&lt;span style=&quot;font-weight: normal;&quot;&gt;{abstract}&lt;/span&gt;" style="swimlane;fontStyle=1;align=center;verticalAlign=top;childLayout=stackLayout;horizontal=1;startSize=60;horizontalStack=0;resizeParent=1;resizeParentMax=0;resizeLast=0;collapsible=1;marginBottom=0;whiteSpace=wrap;html=1;" parent="1" vertex="1">
          <mxGeometry x="1250" y="-358" width="220" height="94" as="geometry" />
        </mxCell>
        <mxCell id="XG4IslfV-Pxhvq0_3yna-33" value="- id: uuid" style="text;strokeColor=none;fillColor=none;align=left;verticalAlign=top;spacingLeft=4;spacingRight=4;overflow=hidden;rotatable=0;points=[[0,0.5],[1,0.5]];portConstraint=eastwest;whiteSpace=wrap;html=1;" parent="XG4IslfV-Pxhvq0_3yna-32" vertex="1">
          <mxGeometry y="60" width="220" height="26" as="geometry" />
        </mxCell>
        <mxCell id="XG4IslfV-Pxhvq0_3yna-35" value="" style="line;strokeWidth=1;fillColor=none;align=left;verticalAlign=middle;spacingTop=-1;spacingLeft=3;spacingRight=3;rotatable=0;labelPosition=right;points=[];portConstraint=eastwest;strokeColor=inherit;" parent="XG4IslfV-Pxhvq0_3yna-32" vertex="1">
          <mxGeometry y="86" width="220" height="8" as="geometry" />
        </mxCell>
        <mxCell id="XG4IslfV-Pxhvq0_3yna-50" style="edgeStyle=orthogonalEdgeStyle;rounded=0;orthogonalLoop=1;jettySize=auto;html=1;endArrow=block;endFill=0;dashed=1;entryX=0.268;entryY=0.967;entryDx=0;entryDy=0;exitX=1;exitY=0.25;exitDx=0;exitDy=0;entryPerimeter=0;" parent="1" source="XG4IslfV-Pxhvq0_3yna-46" target="XG4IslfV-Pxhvq0_3yna-35" edge="1">
          <mxGeometry relative="1" as="geometry" />
        </mxCell>
        <mxCell id="XG4IslfV-Pxhvq0_3yna-54" style="edgeStyle=orthogonalEdgeStyle;rounded=0;orthogonalLoop=1;jettySize=auto;html=1;endArrow=none;endFill=0;entryX=0.25;entryY=0;entryDx=0;entryDy=0;" parent="1" source="XG4IslfV-Pxhvq0_3yna-47" target="XG4IslfV-Pxhvq0_3yna-51" edge="1">
          <mxGeometry relative="1" as="geometry" />
        </mxCell>
        <mxCell id="XG4IslfV-Pxhvq0_3yna-66" value="" style="edgeStyle=orthogonalEdgeStyle;rounded=0;orthogonalLoop=1;jettySize=auto;html=1;endArrow=none;endFill=0;" parent="1" source="XG4IslfV-Pxhvq0_3yna-46" target="XG4IslfV-Pxhvq0_3yna-62" edge="1">
          <mxGeometry relative="1" as="geometry" />
        </mxCell>
        <mxCell id="XG4IslfV-Pxhvq0_3yna-46" value="&lt;span style=&quot;font-weight: normal;&quot;&gt;&amp;lt;&amp;lt; entity &amp;gt;&amp;gt;&lt;br&gt;&lt;/span&gt;Order" style="swimlane;fontStyle=1;align=center;verticalAlign=top;childLayout=stackLayout;horizontal=1;startSize=44;horizontalStack=0;resizeParent=1;resizeParentMax=0;resizeLast=0;collapsible=1;marginBottom=0;whiteSpace=wrap;html=1;" parent="1" vertex="1">
          <mxGeometry x="940" y="-232" width="220" height="182" as="geometry" />
        </mxCell>
        <mxCell id="XG4IslfV-Pxhvq0_3yna-78" value="- user_customer: uuid" style="text;strokeColor=none;fillColor=none;align=left;verticalAlign=top;spacingLeft=4;spacingRight=4;overflow=hidden;rotatable=0;points=[[0,0.5],[1,0.5]];portConstraint=eastwest;whiteSpace=wrap;html=1;" parent="XG4IslfV-Pxhvq0_3yna-46" vertex="1">
          <mxGeometry y="44" width="220" height="26" as="geometry" />
        </mxCell>
        <mxCell id="XG4IslfV-Pxhvq0_3yna-61" value="- order_type: OrderType" style="text;strokeColor=none;fillColor=none;align=left;verticalAlign=top;spacingLeft=4;spacingRight=4;overflow=hidden;rotatable=0;points=[[0,0.5],[1,0.5]];portConstraint=eastwest;whiteSpace=wrap;html=1;" parent="XG4IslfV-Pxhvq0_3yna-46" vertex="1">
          <mxGeometry y="70" width="220" height="26" as="geometry" />
        </mxCell>
        <mxCell id="XG4IslfV-Pxhvq0_3yna-47" value="- status: OrderStatusEnum" style="text;strokeColor=none;fillColor=none;align=left;verticalAlign=top;spacingLeft=4;spacingRight=4;overflow=hidden;rotatable=0;points=[[0,0.5],[1,0.5]];portConstraint=eastwest;whiteSpace=wrap;html=1;" parent="XG4IslfV-Pxhvq0_3yna-46" vertex="1">
          <mxGeometry y="96" width="220" height="26" as="geometry" />
        </mxCell>
        <mxCell id="XG4IslfV-Pxhvq0_3yna-80" value="- parent_order: Order" style="text;strokeColor=none;fillColor=none;align=left;verticalAlign=top;spacingLeft=4;spacingRight=4;overflow=hidden;rotatable=0;points=[[0,0.5],[1,0.5]];portConstraint=eastwest;whiteSpace=wrap;html=1;" parent="XG4IslfV-Pxhvq0_3yna-46" vertex="1">
          <mxGeometry y="122" width="220" height="26" as="geometry" />
        </mxCell>
        <mxCell id="XG4IslfV-Pxhvq0_3yna-79" value="- user_implementer: uuid" style="text;strokeColor=none;fillColor=none;align=left;verticalAlign=top;spacingLeft=4;spacingRight=4;overflow=hidden;rotatable=0;points=[[0,0.5],[1,0.5]];portConstraint=eastwest;whiteSpace=wrap;html=1;" parent="XG4IslfV-Pxhvq0_3yna-46" vertex="1">
          <mxGeometry y="148" width="220" height="26" as="geometry" />
        </mxCell>
        <mxCell id="XG4IslfV-Pxhvq0_3yna-48" value="" style="line;strokeWidth=1;fillColor=none;align=left;verticalAlign=middle;spacingTop=-1;spacingLeft=3;spacingRight=3;rotatable=0;labelPosition=right;points=[];portConstraint=eastwest;strokeColor=inherit;" parent="XG4IslfV-Pxhvq0_3yna-46" vertex="1">
          <mxGeometry y="174" width="220" height="8" as="geometry" />
        </mxCell>
        <mxCell id="XG4IslfV-Pxhvq0_3yna-51" value="&lt;span style=&quot;font-weight: normal;&quot;&gt;&amp;lt;&amp;lt; enumeration &amp;gt;&amp;gt;&lt;br&gt;&lt;/span&gt;OrderStatusEnum" style="swimlane;fontStyle=1;align=center;verticalAlign=top;childLayout=stackLayout;horizontal=1;startSize=44;horizontalStack=0;resizeParent=1;resizeParentMax=0;resizeLast=0;collapsible=1;marginBottom=0;whiteSpace=wrap;html=1;" parent="1" vertex="1">
          <mxGeometry x="810" y="472" width="220" height="234" as="geometry" />
        </mxCell>
        <mxCell id="XG4IslfV-Pxhvq0_3yna-52" value="NEW" style="text;strokeColor=none;fillColor=none;align=left;verticalAlign=top;spacingLeft=4;spacingRight=4;overflow=hidden;rotatable=0;points=[[0,0.5],[1,0.5]];portConstraint=eastwest;whiteSpace=wrap;html=1;" parent="XG4IslfV-Pxhvq0_3yna-51" vertex="1">
          <mxGeometry y="44" width="220" height="26" as="geometry" />
        </mxCell>
        <mxCell id="XG4IslfV-Pxhvq0_3yna-55" value="READY" style="text;strokeColor=none;fillColor=none;align=left;verticalAlign=top;spacingLeft=4;spacingRight=4;overflow=hidden;rotatable=0;points=[[0,0.5],[1,0.5]];portConstraint=eastwest;whiteSpace=wrap;html=1;" parent="XG4IslfV-Pxhvq0_3yna-51" vertex="1">
          <mxGeometry y="70" width="220" height="26" as="geometry" />
        </mxCell>
        <mxCell id="XG4IslfV-Pxhvq0_3yna-60" value="REMOVED" style="text;strokeColor=none;fillColor=none;align=left;verticalAlign=top;spacingLeft=4;spacingRight=4;overflow=hidden;rotatable=0;points=[[0,0.5],[1,0.5]];portConstraint=eastwest;whiteSpace=wrap;html=1;" parent="XG4IslfV-Pxhvq0_3yna-51" vertex="1">
          <mxGeometry y="96" width="220" height="26" as="geometry" />
        </mxCell>
        <mxCell id="XG4IslfV-Pxhvq0_3yna-59" value="TO_REMOVE" style="text;strokeColor=none;fillColor=none;align=left;verticalAlign=top;spacingLeft=4;spacingRight=4;overflow=hidden;rotatable=0;points=[[0,0.5],[1,0.5]];portConstraint=eastwest;whiteSpace=wrap;html=1;" parent="XG4IslfV-Pxhvq0_3yna-51" vertex="1">
          <mxGeometry y="122" width="220" height="26" as="geometry" />
        </mxCell>
        <mxCell id="XG4IslfV-Pxhvq0_3yna-58" value="ACCEPTED" style="text;strokeColor=none;fillColor=none;align=left;verticalAlign=top;spacingLeft=4;spacingRight=4;overflow=hidden;rotatable=0;points=[[0,0.5],[1,0.5]];portConstraint=eastwest;whiteSpace=wrap;html=1;" parent="XG4IslfV-Pxhvq0_3yna-51" vertex="1">
          <mxGeometry y="148" width="220" height="26" as="geometry" />
        </mxCell>
        <mxCell id="XG4IslfV-Pxhvq0_3yna-57" value="DONE" style="text;strokeColor=none;fillColor=none;align=left;verticalAlign=top;spacingLeft=4;spacingRight=4;overflow=hidden;rotatable=0;points=[[0,0.5],[1,0.5]];portConstraint=eastwest;whiteSpace=wrap;html=1;" parent="XG4IslfV-Pxhvq0_3yna-51" vertex="1">
          <mxGeometry y="174" width="220" height="26" as="geometry" />
        </mxCell>
        <mxCell id="XG4IslfV-Pxhvq0_3yna-56" value="IN_PROGRESS" style="text;strokeColor=none;fillColor=none;align=left;verticalAlign=top;spacingLeft=4;spacingRight=4;overflow=hidden;rotatable=0;points=[[0,0.5],[1,0.5]];portConstraint=eastwest;whiteSpace=wrap;html=1;" parent="XG4IslfV-Pxhvq0_3yna-51" vertex="1">
          <mxGeometry y="200" width="220" height="26" as="geometry" />
        </mxCell>
        <mxCell id="XG4IslfV-Pxhvq0_3yna-53" value="" style="line;strokeWidth=1;fillColor=none;align=left;verticalAlign=middle;spacingTop=-1;spacingLeft=3;spacingRight=3;rotatable=0;labelPosition=right;points=[];portConstraint=eastwest;strokeColor=inherit;" parent="XG4IslfV-Pxhvq0_3yna-51" vertex="1">
          <mxGeometry y="226" width="220" height="8" as="geometry" />
        </mxCell>
        <mxCell id="XG4IslfV-Pxhvq0_3yna-62" value="&lt;span style=&quot;font-weight: normal;&quot;&gt;&amp;lt;&amp;lt; entity &amp;gt;&amp;gt;&lt;br&gt;&lt;/span&gt;OrderType" style="swimlane;fontStyle=1;align=center;verticalAlign=top;childLayout=stackLayout;horizontal=1;startSize=44;horizontalStack=0;resizeParent=1;resizeParentMax=0;resizeLast=0;collapsible=1;marginBottom=0;whiteSpace=wrap;html=1;" parent="1" vertex="1">
          <mxGeometry x="940" y="-412" width="220" height="130" as="geometry" />
        </mxCell>
        <mxCell id="XG4IslfV-Pxhvq0_3yna-65" value="- order_type: OrderType" style="text;strokeColor=none;fillColor=none;align=left;verticalAlign=top;spacingLeft=4;spacingRight=4;overflow=hidden;rotatable=0;points=[[0,0.5],[1,0.5]];portConstraint=eastwest;whiteSpace=wrap;html=1;" parent="XG4IslfV-Pxhvq0_3yna-62" vertex="1">
          <mxGeometry y="44" width="220" height="26" as="geometry" />
        </mxCell>
        <mxCell id="XG4IslfV-Pxhvq0_3yna-63" value="- name: string" style="text;strokeColor=none;fillColor=none;align=left;verticalAlign=top;spacingLeft=4;spacingRight=4;overflow=hidden;rotatable=0;points=[[0,0.5],[1,0.5]];portConstraint=eastwest;whiteSpace=wrap;html=1;" parent="XG4IslfV-Pxhvq0_3yna-62" vertex="1">
          <mxGeometry y="70" width="220" height="26" as="geometry" />
        </mxCell>
        <mxCell id="XG4IslfV-Pxhvq0_3yna-76" value="- dep_type: OrderDepType" style="text;strokeColor=none;fillColor=none;align=left;verticalAlign=top;spacingLeft=4;spacingRight=4;overflow=hidden;rotatable=0;points=[[0,0.5],[1,0.5]];portConstraint=eastwest;whiteSpace=wrap;html=1;" parent="XG4IslfV-Pxhvq0_3yna-62" vertex="1">
          <mxGeometry y="96" width="220" height="26" as="geometry" />
        </mxCell>
        <mxCell id="XG4IslfV-Pxhvq0_3yna-64" value="" style="line;strokeWidth=1;fillColor=none;align=left;verticalAlign=middle;spacingTop=-1;spacingLeft=3;spacingRight=3;rotatable=0;labelPosition=right;points=[];portConstraint=eastwest;strokeColor=inherit;" parent="XG4IslfV-Pxhvq0_3yna-62" vertex="1">
          <mxGeometry y="122" width="220" height="8" as="geometry" />
        </mxCell>
        <mxCell id="XG4IslfV-Pxhvq0_3yna-67" value="&lt;span style=&quot;font-weight: normal;&quot;&gt;&amp;lt;&amp;lt; enumeration &amp;gt;&amp;gt;&lt;br&gt;&lt;/span&gt;OrderDepType" style="swimlane;fontStyle=1;align=center;verticalAlign=top;childLayout=stackLayout;horizontal=1;startSize=44;horizontalStack=0;resizeParent=1;resizeParentMax=0;resizeLast=0;collapsible=1;marginBottom=0;whiteSpace=wrap;html=1;" parent="1" vertex="1">
          <mxGeometry x="940" y="-610" width="220" height="156" as="geometry" />
        </mxCell>
        <mxCell id="XG4IslfV-Pxhvq0_3yna-68" value="MAIN" style="text;strokeColor=none;fillColor=none;align=left;verticalAlign=top;spacingLeft=4;spacingRight=4;overflow=hidden;rotatable=0;points=[[0,0.5],[1,0.5]];portConstraint=eastwest;whiteSpace=wrap;html=1;" parent="XG4IslfV-Pxhvq0_3yna-67" vertex="1">
          <mxGeometry y="44" width="220" height="26" as="geometry" />
        </mxCell>
        <mxCell id="XG4IslfV-Pxhvq0_3yna-69" value="OPTIONAL" style="text;strokeColor=none;fillColor=none;align=left;verticalAlign=top;spacingLeft=4;spacingRight=4;overflow=hidden;rotatable=0;points=[[0,0.5],[1,0.5]];portConstraint=eastwest;whiteSpace=wrap;html=1;" parent="XG4IslfV-Pxhvq0_3yna-67" vertex="1">
          <mxGeometry y="70" width="220" height="26" as="geometry" />
        </mxCell>
        <mxCell id="XG4IslfV-Pxhvq0_3yna-70" value="DEFECT" style="text;strokeColor=none;fillColor=none;align=left;verticalAlign=top;spacingLeft=4;spacingRight=4;overflow=hidden;rotatable=0;points=[[0,0.5],[1,0.5]];portConstraint=eastwest;whiteSpace=wrap;html=1;" parent="XG4IslfV-Pxhvq0_3yna-67" vertex="1">
          <mxGeometry y="96" width="220" height="26" as="geometry" />
        </mxCell>
        <mxCell id="XG4IslfV-Pxhvq0_3yna-71" value="DEPEND" style="text;strokeColor=none;fillColor=none;align=left;verticalAlign=top;spacingLeft=4;spacingRight=4;overflow=hidden;rotatable=0;points=[[0,0.5],[1,0.5]];portConstraint=eastwest;whiteSpace=wrap;html=1;" parent="XG4IslfV-Pxhvq0_3yna-67" vertex="1">
          <mxGeometry y="122" width="220" height="26" as="geometry" />
        </mxCell>
        <mxCell id="XG4IslfV-Pxhvq0_3yna-75" value="" style="line;strokeWidth=1;fillColor=none;align=left;verticalAlign=middle;spacingTop=-1;spacingLeft=3;spacingRight=3;rotatable=0;labelPosition=right;points=[];portConstraint=eastwest;strokeColor=inherit;" parent="XG4IslfV-Pxhvq0_3yna-67" vertex="1">
          <mxGeometry y="148" width="220" height="8" as="geometry" />
        </mxCell>
        <mxCell id="XG4IslfV-Pxhvq0_3yna-77" style="edgeStyle=orthogonalEdgeStyle;rounded=0;orthogonalLoop=1;jettySize=auto;html=1;endArrow=none;endFill=0;" parent="1" source="XG4IslfV-Pxhvq0_3yna-62" target="XG4IslfV-Pxhvq0_3yna-67" edge="1">
          <mxGeometry relative="1" as="geometry" />
        </mxCell>
        <mxCell id="v8E98mAkS4Zb0eujBMSa-5" style="edgeStyle=orthogonalEdgeStyle;rounded=0;orthogonalLoop=1;jettySize=auto;html=1;endArrow=none;endFill=0;exitX=0.75;exitY=0;exitDx=0;exitDy=0;entryX=1;entryY=0.5;entryDx=0;entryDy=0;" parent="1" source="XG4IslfV-Pxhvq0_3yna-81" target="XG4IslfV-Pxhvq0_3yna-79" edge="1">
          <mxGeometry relative="1" as="geometry" />
        </mxCell>
        <mxCell id="XG4IslfV-Pxhvq0_3yna-81" value="&lt;span style=&quot;font-weight: normal;&quot;&gt;&amp;lt;&amp;lt; entity &amp;gt;&amp;gt;&lt;br&gt;&lt;/span&gt;OrderStatus" style="swimlane;fontStyle=1;align=center;verticalAlign=top;childLayout=stackLayout;horizontal=1;startSize=44;horizontalStack=0;resizeParent=1;resizeParentMax=0;resizeLast=0;collapsible=1;marginBottom=0;whiteSpace=wrap;html=1;" parent="1" vertex="1">
          <mxGeometry x="1070" y="159" width="220" height="156" as="geometry" />
        </mxCell>
        <mxCell id="XG4IslfV-Pxhvq0_3yna-82" value="- order: Order" style="text;strokeColor=none;fillColor=none;align=left;verticalAlign=top;spacingLeft=4;spacingRight=4;overflow=hidden;rotatable=0;points=[[0,0.5],[1,0.5]];portConstraint=eastwest;whiteSpace=wrap;html=1;" parent="XG4IslfV-Pxhvq0_3yna-81" vertex="1">
          <mxGeometry y="44" width="220" height="26" as="geometry" />
        </mxCell>
        <mxCell id="XG4IslfV-Pxhvq0_3yna-85" value="- user: uuid" style="text;strokeColor=none;fillColor=none;align=left;verticalAlign=top;spacingLeft=4;spacingRight=4;overflow=hidden;rotatable=0;points=[[0,0.5],[1,0.5]];portConstraint=eastwest;whiteSpace=wrap;html=1;" parent="XG4IslfV-Pxhvq0_3yna-81" vertex="1">
          <mxGeometry y="70" width="220" height="26" as="geometry" />
        </mxCell>
        <mxCell id="v8E98mAkS4Zb0eujBMSa-1" value="- old_status: OrderStatusEnum" style="text;strokeColor=none;fillColor=none;align=left;verticalAlign=top;spacingLeft=4;spacingRight=4;overflow=hidden;rotatable=0;points=[[0,0.5],[1,0.5]];portConstraint=eastwest;whiteSpace=wrap;html=1;" parent="XG4IslfV-Pxhvq0_3yna-81" vertex="1">
          <mxGeometry y="96" width="220" height="26" as="geometry" />
        </mxCell>
        <mxCell id="v8E98mAkS4Zb0eujBMSa-2" value="- new_status: OrderStatusEnum" style="text;strokeColor=none;fillColor=none;align=left;verticalAlign=top;spacingLeft=4;spacingRight=4;overflow=hidden;rotatable=0;points=[[0,0.5],[1,0.5]];portConstraint=eastwest;whiteSpace=wrap;html=1;" parent="XG4IslfV-Pxhvq0_3yna-81" vertex="1">
          <mxGeometry y="122" width="220" height="26" as="geometry" />
        </mxCell>
        <mxCell id="XG4IslfV-Pxhvq0_3yna-83" value="" style="line;strokeWidth=1;fillColor=none;align=left;verticalAlign=middle;spacingTop=-1;spacingLeft=3;spacingRight=3;rotatable=0;labelPosition=right;points=[];portConstraint=eastwest;strokeColor=inherit;" parent="XG4IslfV-Pxhvq0_3yna-81" vertex="1">
          <mxGeometry y="148" width="220" height="8" as="geometry" />
        </mxCell>
        <mxCell id="qYNk-IU5I3HGj0Sha-Av-2" value="&lt;span style=&quot;font-weight: normal;&quot;&gt;&amp;lt;&amp;lt; entity &amp;gt;&amp;gt;&lt;br&gt;&lt;/span&gt;OrderConfirmation" style="swimlane;fontStyle=1;align=center;verticalAlign=top;childLayout=stackLayout;horizontal=1;startSize=44;horizontalStack=0;resizeParent=1;resizeParentMax=0;resizeLast=0;collapsible=1;marginBottom=0;whiteSpace=wrap;html=1;" parent="1" vertex="1">
          <mxGeometry x="940" y="-8" width="220" height="130" as="geometry" />
        </mxCell>
        <mxCell id="qYNk-IU5I3HGj0Sha-Av-3" value="- order: Order" style="text;strokeColor=none;fillColor=none;align=left;verticalAlign=top;spacingLeft=4;spacingRight=4;overflow=hidden;rotatable=0;points=[[0,0.5],[1,0.5]];portConstraint=eastwest;whiteSpace=wrap;html=1;" parent="qYNk-IU5I3HGj0Sha-Av-2" vertex="1">
          <mxGeometry y="44" width="220" height="26" as="geometry" />
        </mxCell>
        <mxCell id="qYNk-IU5I3HGj0Sha-Av-4" value="- user: uuid" style="text;strokeColor=none;fillColor=none;align=left;verticalAlign=top;spacingLeft=4;spacingRight=4;overflow=hidden;rotatable=0;points=[[0,0.5],[1,0.5]];portConstraint=eastwest;whiteSpace=wrap;html=1;" parent="qYNk-IU5I3HGj0Sha-Av-2" vertex="1">
          <mxGeometry y="70" width="220" height="26" as="geometry" />
        </mxCell>
        <mxCell id="qYNk-IU5I3HGj0Sha-Av-5" value="- signed: bool" style="text;strokeColor=none;fillColor=none;align=left;verticalAlign=top;spacingLeft=4;spacingRight=4;overflow=hidden;rotatable=0;points=[[0,0.5],[1,0.5]];portConstraint=eastwest;whiteSpace=wrap;html=1;" parent="qYNk-IU5I3HGj0Sha-Av-2" vertex="1">
          <mxGeometry y="96" width="220" height="26" as="geometry" />
        </mxCell>
        <mxCell id="qYNk-IU5I3HGj0Sha-Av-6" value="" style="line;strokeWidth=1;fillColor=none;align=left;verticalAlign=middle;spacingTop=-1;spacingLeft=3;spacingRight=3;rotatable=0;labelPosition=right;points=[];portConstraint=eastwest;strokeColor=inherit;" parent="qYNk-IU5I3HGj0Sha-Av-2" vertex="1">
          <mxGeometry y="122" width="220" height="8" as="geometry" />
        </mxCell>
        <mxCell id="qYNk-IU5I3HGj0Sha-Av-7" style="edgeStyle=orthogonalEdgeStyle;rounded=0;orthogonalLoop=1;jettySize=auto;html=1;endArrow=block;endFill=0;dashed=1;entryX=0.75;entryY=1;entryDx=0;entryDy=0;exitX=1;exitY=0.5;exitDx=0;exitDy=0;" parent="1" source="XG4IslfV-Pxhvq0_3yna-82" target="XG4IslfV-Pxhvq0_3yna-32" edge="1">
          <mxGeometry relative="1" as="geometry">
            <mxPoint x="1100" y="-424" as="sourcePoint" />
            <mxPoint x="1100" y="-486" as="targetPoint" />
          </mxGeometry>
        </mxCell>
        <mxCell id="qYNk-IU5I3HGj0Sha-Av-8" style="edgeStyle=orthogonalEdgeStyle;rounded=0;orthogonalLoop=1;jettySize=auto;html=1;endArrow=block;endFill=0;dashed=1;exitX=1;exitY=0.25;exitDx=0;exitDy=0;entryX=0.5;entryY=1;entryDx=0;entryDy=0;" parent="1" source="qYNk-IU5I3HGj0Sha-Av-2" target="XG4IslfV-Pxhvq0_3yna-32" edge="1">
          <mxGeometry relative="1" as="geometry">
            <mxPoint x="1100" y="-200" as="sourcePoint" />
            <mxPoint x="1100" y="-242" as="targetPoint" />
          </mxGeometry>
        </mxCell>
        <mxCell id="v8E98mAkS4Zb0eujBMSa-3" style="edgeStyle=orthogonalEdgeStyle;rounded=0;orthogonalLoop=1;jettySize=auto;html=1;endArrow=none;endFill=0;entryX=1;entryY=0.5;entryDx=0;entryDy=0;exitX=0.5;exitY=1;exitDx=0;exitDy=0;" parent="1" source="XG4IslfV-Pxhvq0_3yna-81" target="XG4IslfV-Pxhvq0_3yna-55" edge="1">
          <mxGeometry relative="1" as="geometry">
            <mxPoint x="1210" y="-367" as="sourcePoint" />
            <mxPoint x="1340" y="-367" as="targetPoint" />
          </mxGeometry>
        </mxCell>
        <mxCell id="v8E98mAkS4Zb0eujBMSa-4" style="edgeStyle=orthogonalEdgeStyle;rounded=0;orthogonalLoop=1;jettySize=auto;html=1;endArrow=none;endFill=0;entryX=1;entryY=0.5;entryDx=0;entryDy=0;exitX=0.75;exitY=1;exitDx=0;exitDy=0;" parent="1" source="XG4IslfV-Pxhvq0_3yna-81" target="XG4IslfV-Pxhvq0_3yna-59" edge="1">
          <mxGeometry relative="1" as="geometry">
            <mxPoint x="1110" y="330" as="sourcePoint" />
            <mxPoint x="1700" y="-830" as="targetPoint" />
          </mxGeometry>
        </mxCell>
        <mxCell id="v8E98mAkS4Zb0eujBMSa-6" style="edgeStyle=orthogonalEdgeStyle;rounded=0;orthogonalLoop=1;jettySize=auto;html=1;endArrow=none;endFill=0;" parent="1" source="qYNk-IU5I3HGj0Sha-Av-2" target="XG4IslfV-Pxhvq0_3yna-46" edge="1">
          <mxGeometry relative="1" as="geometry" />
        </mxCell>
        <mxCell id="f_zCQfHJY7QkMIpprzHP-2" style="edgeStyle=orthogonalEdgeStyle;rounded=0;orthogonalLoop=1;jettySize=auto;html=1;exitX=1;exitY=0.5;exitDx=0;exitDy=0;entryX=0;entryY=0.25;entryDx=0;entryDy=0;endArrow=none;endFill=0;" parent="1" source="v8E98mAkS4Zb0eujBMSa-8" target="v8E98mAkS4Zb0eujBMSa-104" edge="1">
          <mxGeometry relative="1" as="geometry" />
        </mxCell>
        <mxCell id="v8E98mAkS4Zb0eujBMSa-7" value="&lt;span style=&quot;font-weight: normal;&quot;&gt;&amp;lt;&amp;lt; DTO &amp;gt;&amp;gt;&lt;br&gt;&lt;/span&gt;OrderDTO" style="swimlane;fontStyle=1;align=center;verticalAlign=top;childLayout=stackLayout;horizontal=1;startSize=44;horizontalStack=0;resizeParent=1;resizeParentMax=0;resizeLast=0;collapsible=1;marginBottom=0;whiteSpace=wrap;html=1;" parent="1" vertex="1">
          <mxGeometry x="-710" y="-277" width="220" height="182" as="geometry">
            <mxRectangle x="1520" y="174" width="100" height="44" as="alternateBounds" />
          </mxGeometry>
        </mxCell>
        <mxCell id="v8E98mAkS4Zb0eujBMSa-8" value="- parent_order_id: uuid" style="text;strokeColor=none;fillColor=none;align=left;verticalAlign=top;spacingLeft=4;spacingRight=4;overflow=hidden;rotatable=0;points=[[0,0.5],[1,0.5]];portConstraint=eastwest;whiteSpace=wrap;html=1;" parent="v8E98mAkS4Zb0eujBMSa-7" vertex="1">
          <mxGeometry y="44" width="220" height="26" as="geometry" />
        </mxCell>
        <mxCell id="v8E98mAkS4Zb0eujBMSa-9" value="- user_implementer: uuid" style="text;strokeColor=none;fillColor=none;align=left;verticalAlign=top;spacingLeft=4;spacingRight=4;overflow=hidden;rotatable=0;points=[[0,0.5],[1,0.5]];portConstraint=eastwest;whiteSpace=wrap;html=1;" parent="v8E98mAkS4Zb0eujBMSa-7" vertex="1">
          <mxGeometry y="70" width="220" height="26" as="geometry" />
        </mxCell>
        <mxCell id="v8E98mAkS4Zb0eujBMSa-10" value="- user_customer: uuid" style="text;strokeColor=none;fillColor=none;align=left;verticalAlign=top;spacingLeft=4;spacingRight=4;overflow=hidden;rotatable=0;points=[[0,0.5],[1,0.5]];portConstraint=eastwest;whiteSpace=wrap;html=1;" parent="v8E98mAkS4Zb0eujBMSa-7" vertex="1">
          <mxGeometry y="96" width="220" height="26" as="geometry" />
        </mxCell>
        <mxCell id="v8E98mAkS4Zb0eujBMSa-11" value="- order_type_id: uuid" style="text;strokeColor=none;fillColor=none;align=left;verticalAlign=top;spacingLeft=4;spacingRight=4;overflow=hidden;rotatable=0;points=[[0,0.5],[1,0.5]];portConstraint=eastwest;whiteSpace=wrap;html=1;" parent="v8E98mAkS4Zb0eujBMSa-7" vertex="1">
          <mxGeometry y="122" width="220" height="26" as="geometry" />
        </mxCell>
        <mxCell id="v8E98mAkS4Zb0eujBMSa-12" value="- status: OrderStatusEnum" style="text;strokeColor=none;fillColor=none;align=left;verticalAlign=top;spacingLeft=4;spacingRight=4;overflow=hidden;rotatable=0;points=[[0,0.5],[1,0.5]];portConstraint=eastwest;whiteSpace=wrap;html=1;" parent="v8E98mAkS4Zb0eujBMSa-7" vertex="1">
          <mxGeometry y="148" width="220" height="26" as="geometry" />
        </mxCell>
        <mxCell id="v8E98mAkS4Zb0eujBMSa-13" value="" style="line;strokeWidth=1;fillColor=none;align=left;verticalAlign=middle;spacingTop=-1;spacingLeft=3;spacingRight=3;rotatable=0;labelPosition=right;points=[];portConstraint=eastwest;strokeColor=inherit;" parent="v8E98mAkS4Zb0eujBMSa-7" vertex="1">
          <mxGeometry y="174" width="220" height="8" as="geometry" />
        </mxCell>
        <mxCell id="v8E98mAkS4Zb0eujBMSa-110" value="" style="edgeStyle=orthogonalEdgeStyle;rounded=0;orthogonalLoop=1;jettySize=auto;html=1;endArrow=none;endFill=0;" parent="1" source="v8E98mAkS4Zb0eujBMSa-15" target="v8E98mAkS4Zb0eujBMSa-81" edge="1">
          <mxGeometry relative="1" as="geometry" />
        </mxCell>
        <mxCell id="v8E98mAkS4Zb0eujBMSa-15" value="&lt;span style=&quot;font-weight: normal;&quot;&gt;&amp;lt;&amp;lt; service &amp;gt;&amp;gt;&lt;br&gt;&lt;/span&gt;BaseService&lt;br&gt;&lt;span style=&quot;font-weight: normal;&quot;&gt;{abstract}&lt;/span&gt;" style="swimlane;fontStyle=1;align=center;verticalAlign=top;childLayout=stackLayout;horizontal=1;startSize=60;horizontalStack=0;resizeParent=1;resizeParentMax=0;resizeLast=0;collapsible=1;marginBottom=0;whiteSpace=wrap;html=1;" parent="1" vertex="1">
          <mxGeometry x="480" y="-670" width="300" height="224" as="geometry" />
        </mxCell>
        <mxCell id="v8E98mAkS4Zb0eujBMSa-16" value="- session: Session" style="text;strokeColor=none;fillColor=none;align=left;verticalAlign=top;spacingLeft=4;spacingRight=4;overflow=hidden;rotatable=0;points=[[0,0.5],[1,0.5]];portConstraint=eastwest;whiteSpace=wrap;html=1;" parent="v8E98mAkS4Zb0eujBMSa-15" vertex="1">
          <mxGeometry y="60" width="300" height="26" as="geometry" />
        </mxCell>
        <mxCell id="v8E98mAkS4Zb0eujBMSa-87" value="- entity_class: Class&amp;lt;BaseEntity&amp;gt;" style="text;strokeColor=none;fillColor=none;align=left;verticalAlign=top;spacingLeft=4;spacingRight=4;overflow=hidden;rotatable=0;points=[[0,0.5],[1,0.5]];portConstraint=eastwest;whiteSpace=wrap;html=1;" parent="v8E98mAkS4Zb0eujBMSa-15" vertex="1">
          <mxGeometry y="86" width="300" height="26" as="geometry" />
        </mxCell>
        <mxCell id="v8E98mAkS4Zb0eujBMSa-88" value="- sorting_fields: Set&amp;lt;str&amp;gt;" style="text;strokeColor=none;fillColor=none;align=left;verticalAlign=top;spacingLeft=4;spacingRight=4;overflow=hidden;rotatable=0;points=[[0,0.5],[1,0.5]];portConstraint=eastwest;whiteSpace=wrap;html=1;" parent="v8E98mAkS4Zb0eujBMSa-15" vertex="1">
          <mxGeometry y="112" width="300" height="26" as="geometry" />
        </mxCell>
        <mxCell id="v8E98mAkS4Zb0eujBMSa-17" value="" style="line;strokeWidth=1;fillColor=none;align=left;verticalAlign=middle;spacingTop=-1;spacingLeft=3;spacingRight=3;rotatable=0;labelPosition=right;points=[];portConstraint=eastwest;strokeColor=inherit;" parent="v8E98mAkS4Zb0eujBMSa-15" vertex="1">
          <mxGeometry y="138" width="300" height="8" as="geometry" />
        </mxCell>
        <mxCell id="v8E98mAkS4Zb0eujBMSa-18" value="+ read_one(params : Map): BaseEntity" style="text;strokeColor=none;fillColor=none;align=left;verticalAlign=top;spacingLeft=4;spacingRight=4;overflow=hidden;rotatable=0;points=[[0,0.5],[1,0.5]];portConstraint=eastwest;whiteSpace=wrap;html=1;" parent="v8E98mAkS4Zb0eujBMSa-15" vertex="1">
          <mxGeometry y="146" width="300" height="26" as="geometry" />
        </mxCell>
        <mxCell id="v8E98mAkS4Zb0eujBMSa-128" value="+ create(item: BaseDTO): BaseEntity" style="text;strokeColor=none;fillColor=none;align=left;verticalAlign=top;spacingLeft=4;spacingRight=4;overflow=hidden;rotatable=0;points=[[0,0.5],[1,0.5]];portConstraint=eastwest;whiteSpace=wrap;html=1;" parent="v8E98mAkS4Zb0eujBMSa-15" vertex="1">
          <mxGeometry y="172" width="300" height="26" as="geometry" />
        </mxCell>
        <mxCell id="v8E98mAkS4Zb0eujBMSa-134" value="+ update(id: uuid, item: BaseDTO): BaseEntity" style="text;strokeColor=none;fillColor=none;align=left;verticalAlign=top;spacingLeft=4;spacingRight=4;overflow=hidden;rotatable=0;points=[[0,0.5],[1,0.5]];portConstraint=eastwest;whiteSpace=wrap;html=1;" parent="v8E98mAkS4Zb0eujBMSa-15" vertex="1">
          <mxGeometry y="198" width="300" height="26" as="geometry" />
        </mxCell>
        <mxCell id="v8E98mAkS4Zb0eujBMSa-34" style="edgeStyle=orthogonalEdgeStyle;rounded=0;orthogonalLoop=1;jettySize=auto;html=1;endArrow=block;endFill=0;" parent="1" source="n5RtKLMIV_oeWOQwG9p4-8" target="n5RtKLMIV_oeWOQwG9p4-4" edge="1">
          <mxGeometry relative="1" as="geometry">
            <mxPoint x="-880" y="-869" as="sourcePoint" />
            <mxPoint x="-790.0000000000009" y="-681" as="targetPoint" />
          </mxGeometry>
        </mxCell>
        <mxCell id="v8E98mAkS4Zb0eujBMSa-35" style="edgeStyle=orthogonalEdgeStyle;rounded=0;orthogonalLoop=1;jettySize=auto;html=1;endArrow=block;endFill=0;entryX=0.25;entryY=1;entryDx=0;entryDy=0;exitX=0;exitY=0.25;exitDx=0;exitDy=0;" parent="1" source="v8E98mAkS4Zb0eujBMSa-7" target="n5RtKLMIV_oeWOQwG9p4-8" edge="1">
          <mxGeometry relative="1" as="geometry">
            <mxPoint x="-1250" y="-1042" as="sourcePoint" />
            <mxPoint x="-1090.000000000001" y="-936" as="targetPoint" />
          </mxGeometry>
        </mxCell>
        <mxCell id="v8E98mAkS4Zb0eujBMSa-36" value="&lt;span style=&quot;font-weight: normal;&quot;&gt;&amp;lt;&amp;lt; DTO &amp;gt;&amp;gt;&lt;br&gt;&lt;/span&gt;BaseDTO" style="swimlane;fontStyle=1;align=center;verticalAlign=top;childLayout=stackLayout;horizontal=1;startSize=44;horizontalStack=0;resizeParent=1;resizeParentMax=0;resizeLast=0;collapsible=1;marginBottom=0;whiteSpace=wrap;html=1;" parent="1" vertex="1">
          <mxGeometry x="-1090" y="-632" width="220" height="70" as="geometry" />
        </mxCell>
        <mxCell id="v8E98mAkS4Zb0eujBMSa-39" style="edgeStyle=orthogonalEdgeStyle;rounded=0;orthogonalLoop=1;jettySize=auto;html=1;endArrow=block;endFill=0;exitX=0;exitY=0.5;exitDx=0;exitDy=0;entryX=1;entryY=0.5;entryDx=0;entryDy=0;" parent="1" source="n5RtKLMIV_oeWOQwG9p4-5" target="v8E98mAkS4Zb0eujBMSa-36" edge="1">
          <mxGeometry relative="1" as="geometry">
            <mxPoint x="-1090" y="-1166" as="sourcePoint" />
            <mxPoint x="-1080" y="-1086" as="targetPoint" />
          </mxGeometry>
        </mxCell>
        <mxCell id="v8E98mAkS4Zb0eujBMSa-40" value="&lt;span style=&quot;font-weight: normal;&quot;&gt;&amp;lt;&amp;lt; DTO &amp;gt;&amp;gt;&lt;br&gt;&lt;/span&gt;OrderStatusUpdateDTO" style="swimlane;fontStyle=1;align=center;verticalAlign=top;childLayout=stackLayout;horizontal=1;startSize=44;horizontalStack=0;resizeParent=1;resizeParentMax=0;resizeLast=0;collapsible=1;marginBottom=0;whiteSpace=wrap;html=1;" parent="1" vertex="1">
          <mxGeometry x="-710" y="61" width="220" height="104" as="geometry">
            <mxRectangle x="1520" y="174" width="100" height="44" as="alternateBounds" />
          </mxGeometry>
        </mxCell>
        <mxCell id="v8E98mAkS4Zb0eujBMSa-48" value="- old_status: OrderStatusEnum" style="text;strokeColor=none;fillColor=none;align=left;verticalAlign=top;spacingLeft=4;spacingRight=4;overflow=hidden;rotatable=0;points=[[0,0.5],[1,0.5]];portConstraint=eastwest;whiteSpace=wrap;html=1;" parent="v8E98mAkS4Zb0eujBMSa-40" vertex="1">
          <mxGeometry y="44" width="220" height="26" as="geometry" />
        </mxCell>
        <mxCell id="f_zCQfHJY7QkMIpprzHP-7" value="- new_status: OrderStatusEnum" style="text;strokeColor=none;fillColor=none;align=left;verticalAlign=top;spacingLeft=4;spacingRight=4;overflow=hidden;rotatable=0;points=[[0,0.5],[1,0.5]];portConstraint=eastwest;whiteSpace=wrap;html=1;" parent="v8E98mAkS4Zb0eujBMSa-40" vertex="1">
          <mxGeometry y="70" width="220" height="26" as="geometry" />
        </mxCell>
        <mxCell id="v8E98mAkS4Zb0eujBMSa-46" value="" style="line;strokeWidth=1;fillColor=none;align=left;verticalAlign=middle;spacingTop=-1;spacingLeft=3;spacingRight=3;rotatable=0;labelPosition=right;points=[];portConstraint=eastwest;strokeColor=inherit;" parent="v8E98mAkS4Zb0eujBMSa-40" vertex="1">
          <mxGeometry y="96" width="220" height="8" as="geometry" />
        </mxCell>
        <mxCell id="v8E98mAkS4Zb0eujBMSa-63" style="edgeStyle=orthogonalEdgeStyle;rounded=0;orthogonalLoop=1;jettySize=auto;html=1;endArrow=none;endFill=0;exitX=1;exitY=0.5;exitDx=0;exitDy=0;entryX=0;entryY=0.5;entryDx=0;entryDy=0;" parent="1" source="n5RtKLMIV_oeWOQwG9p4-27" target="v8E98mAkS4Zb0eujBMSa-54" edge="1">
          <mxGeometry relative="1" as="geometry" />
        </mxCell>
        <mxCell id="v8E98mAkS4Zb0eujBMSa-49" value="&lt;span style=&quot;font-weight: normal;&quot;&gt;&amp;lt;&amp;lt; DTO &amp;gt;&amp;gt;&lt;br&gt;&lt;/span&gt;UserDTO" style="swimlane;fontStyle=1;align=center;verticalAlign=top;childLayout=stackLayout;horizontal=1;startSize=44;horizontalStack=0;resizeParent=1;resizeParentMax=0;resizeLast=0;collapsible=1;marginBottom=0;whiteSpace=wrap;html=1;direction=west;flipH=1;flipV=1;" parent="1" vertex="1">
          <mxGeometry x="-1170" y="706" width="320" height="182" as="geometry">
            <mxRectangle x="1520" y="174" width="100" height="44" as="alternateBounds" />
          </mxGeometry>
        </mxCell>
        <mxCell id="v8E98mAkS4Zb0eujBMSa-50" value="- user_id: uuid" style="text;strokeColor=none;fillColor=none;align=left;verticalAlign=top;spacingLeft=4;spacingRight=4;overflow=hidden;rotatable=0;points=[[0,0.5],[1,0.5]];portConstraint=eastwest;whiteSpace=wrap;html=1;" parent="v8E98mAkS4Zb0eujBMSa-49" vertex="1">
          <mxGeometry y="44" width="320" height="26" as="geometry" />
        </mxCell>
        <mxCell id="v8E98mAkS4Zb0eujBMSa-61" value="- name: str" style="text;strokeColor=none;fillColor=none;align=left;verticalAlign=top;spacingLeft=4;spacingRight=4;overflow=hidden;rotatable=0;points=[[0,0.5],[1,0.5]];portConstraint=eastwest;whiteSpace=wrap;html=1;" parent="v8E98mAkS4Zb0eujBMSa-49" vertex="1">
          <mxGeometry y="70" width="320" height="26" as="geometry" />
        </mxCell>
        <mxCell id="v8E98mAkS4Zb0eujBMSa-62" value="- roles: List&amp;lt;UserRole&amp;gt;" style="text;strokeColor=none;fillColor=none;align=left;verticalAlign=top;spacingLeft=4;spacingRight=4;overflow=hidden;rotatable=0;points=[[0,0.5],[1,0.5]];portConstraint=eastwest;whiteSpace=wrap;html=1;" parent="v8E98mAkS4Zb0eujBMSa-49" vertex="1">
          <mxGeometry y="96" width="320" height="26" as="geometry" />
        </mxCell>
        <mxCell id="v8E98mAkS4Zb0eujBMSa-51" value="" style="line;strokeWidth=1;fillColor=none;align=left;verticalAlign=middle;spacingTop=-1;spacingLeft=3;spacingRight=3;rotatable=0;labelPosition=right;points=[];portConstraint=eastwest;strokeColor=inherit;" parent="v8E98mAkS4Zb0eujBMSa-49" vertex="1">
          <mxGeometry y="122" width="320" height="8" as="geometry" />
        </mxCell>
        <mxCell id="n5RtKLMIV_oeWOQwG9p4-20" value="+ has_one_of_roles(roles: List&amp;lt;UserRole&amp;gt;): bool" style="text;strokeColor=none;fillColor=none;align=left;verticalAlign=top;spacingLeft=4;spacingRight=4;overflow=hidden;rotatable=0;points=[[0,0.5],[1,0.5]];portConstraint=eastwest;whiteSpace=wrap;html=1;" parent="v8E98mAkS4Zb0eujBMSa-49" vertex="1">
          <mxGeometry y="130" width="320" height="26" as="geometry" />
        </mxCell>
        <mxCell id="n5RtKLMIV_oeWOQwG9p4-27" value="+ has_all_of_roles(roles: List&amp;lt;UserRole&amp;gt;): bool" style="text;strokeColor=none;fillColor=none;align=left;verticalAlign=top;spacingLeft=4;spacingRight=4;overflow=hidden;rotatable=0;points=[[0,0.5],[1,0.5]];portConstraint=eastwest;whiteSpace=wrap;html=1;" parent="v8E98mAkS4Zb0eujBMSa-49" vertex="1">
          <mxGeometry y="156" width="320" height="26" as="geometry" />
        </mxCell>
        <mxCell id="f_zCQfHJY7QkMIpprzHP-22" style="edgeStyle=orthogonalEdgeStyle;rounded=0;orthogonalLoop=1;jettySize=auto;html=1;entryX=0;entryY=0.5;entryDx=0;entryDy=0;exitX=0.998;exitY=0.163;exitDx=0;exitDy=0;exitPerimeter=0;endArrow=none;endFill=0;" parent="1" source="v8E98mAkS4Zb0eujBMSa-52" target="n5RtKLMIV_oeWOQwG9p4-28" edge="1">
          <mxGeometry relative="1" as="geometry">
            <mxPoint x="-530" y="829" as="sourcePoint" />
          </mxGeometry>
        </mxCell>
        <mxCell id="v8E98mAkS4Zb0eujBMSa-52" value="&lt;span style=&quot;font-weight: normal;&quot;&gt;&amp;lt;&amp;lt; enumeration &amp;gt;&amp;gt;&lt;br&gt;&lt;/span&gt;UserRole" style="swimlane;fontStyle=1;align=center;verticalAlign=top;childLayout=stackLayout;horizontal=1;startSize=44;horizontalStack=0;resizeParent=1;resizeParentMax=0;resizeLast=0;collapsible=1;marginBottom=0;whiteSpace=wrap;html=1;" parent="1" vertex="1">
          <mxGeometry x="-650" y="791" width="220" height="234" as="geometry" />
        </mxCell>
        <mxCell id="v8E98mAkS4Zb0eujBMSa-53" value="USER" style="text;strokeColor=none;fillColor=none;align=left;verticalAlign=top;spacingLeft=4;spacingRight=4;overflow=hidden;rotatable=0;points=[[0,0.5],[1,0.5]];portConstraint=eastwest;whiteSpace=wrap;html=1;" parent="v8E98mAkS4Zb0eujBMSa-52" vertex="1">
          <mxGeometry y="44" width="220" height="26" as="geometry" />
        </mxCell>
        <mxCell id="v8E98mAkS4Zb0eujBMSa-54" value="CUSTOMER" style="text;strokeColor=none;fillColor=none;align=left;verticalAlign=top;spacingLeft=4;spacingRight=4;overflow=hidden;rotatable=0;points=[[0,0.5],[1,0.5]];portConstraint=eastwest;whiteSpace=wrap;html=1;" parent="v8E98mAkS4Zb0eujBMSa-52" vertex="1">
          <mxGeometry y="70" width="220" height="26" as="geometry" />
        </mxCell>
        <mxCell id="v8E98mAkS4Zb0eujBMSa-55" value="STAFF" style="text;strokeColor=none;fillColor=none;align=left;verticalAlign=top;spacingLeft=4;spacingRight=4;overflow=hidden;rotatable=0;points=[[0,0.5],[1,0.5]];portConstraint=eastwest;whiteSpace=wrap;html=1;" parent="v8E98mAkS4Zb0eujBMSa-52" vertex="1">
          <mxGeometry y="96" width="220" height="26" as="geometry" />
        </mxCell>
        <mxCell id="v8E98mAkS4Zb0eujBMSa-56" value="STAFF_ORDER_MANAGER" style="text;strokeColor=none;fillColor=none;align=left;verticalAlign=top;spacingLeft=4;spacingRight=4;overflow=hidden;rotatable=0;points=[[0,0.5],[1,0.5]];portConstraint=eastwest;whiteSpace=wrap;html=1;" parent="v8E98mAkS4Zb0eujBMSa-52" vertex="1">
          <mxGeometry y="122" width="220" height="26" as="geometry" />
        </mxCell>
        <mxCell id="v8E98mAkS4Zb0eujBMSa-57" value="STAFF_CUSTOMER_MANAGER" style="text;strokeColor=none;fillColor=none;align=left;verticalAlign=top;spacingLeft=4;spacingRight=4;overflow=hidden;rotatable=0;points=[[0,0.5],[1,0.5]];portConstraint=eastwest;whiteSpace=wrap;html=1;" parent="v8E98mAkS4Zb0eujBMSa-52" vertex="1">
          <mxGeometry y="148" width="220" height="26" as="geometry" />
        </mxCell>
        <mxCell id="v8E98mAkS4Zb0eujBMSa-58" value="STAFF_AXEMAN" style="text;strokeColor=none;fillColor=none;align=left;verticalAlign=top;spacingLeft=4;spacingRight=4;overflow=hidden;rotatable=0;points=[[0,0.5],[1,0.5]];portConstraint=eastwest;whiteSpace=wrap;html=1;" parent="v8E98mAkS4Zb0eujBMSa-52" vertex="1">
          <mxGeometry y="174" width="220" height="26" as="geometry" />
        </mxCell>
        <mxCell id="v8E98mAkS4Zb0eujBMSa-59" value="ADMIN" style="text;strokeColor=none;fillColor=none;align=left;verticalAlign=top;spacingLeft=4;spacingRight=4;overflow=hidden;rotatable=0;points=[[0,0.5],[1,0.5]];portConstraint=eastwest;whiteSpace=wrap;html=1;" parent="v8E98mAkS4Zb0eujBMSa-52" vertex="1">
          <mxGeometry y="200" width="220" height="26" as="geometry" />
        </mxCell>
        <mxCell id="v8E98mAkS4Zb0eujBMSa-60" value="" style="line;strokeWidth=1;fillColor=none;align=left;verticalAlign=middle;spacingTop=-1;spacingLeft=3;spacingRight=3;rotatable=0;labelPosition=right;points=[];portConstraint=eastwest;strokeColor=inherit;" parent="v8E98mAkS4Zb0eujBMSa-52" vertex="1">
          <mxGeometry y="226" width="220" height="8" as="geometry" />
        </mxCell>
        <mxCell id="n5RtKLMIV_oeWOQwG9p4-2" style="edgeStyle=orthogonalEdgeStyle;rounded=0;orthogonalLoop=1;jettySize=auto;html=1;exitX=0.75;exitY=0;exitDx=0;exitDy=0;entryX=1;entryY=0.25;entryDx=0;entryDy=0;endArrow=block;endFill=0;" parent="1" source="v8E98mAkS4Zb0eujBMSa-66" target="n5RtKLMIV_oeWOQwG9p4-8" edge="1">
          <mxGeometry relative="1" as="geometry">
            <mxPoint x="-1090.000000000001" y="-936" as="targetPoint" />
          </mxGeometry>
        </mxCell>
        <mxCell id="f_zCQfHJY7QkMIpprzHP-1" style="edgeStyle=orthogonalEdgeStyle;rounded=0;orthogonalLoop=1;jettySize=auto;html=1;entryX=0;entryY=0.25;entryDx=0;entryDy=0;endArrow=none;endFill=0;" parent="1" source="v8E98mAkS4Zb0eujBMSa-66" target="v8E98mAkS4Zb0eujBMSa-116" edge="1">
          <mxGeometry relative="1" as="geometry" />
        </mxCell>
        <mxCell id="v8E98mAkS4Zb0eujBMSa-66" value="&lt;span style=&quot;font-weight: normal;&quot;&gt;&amp;lt;&amp;lt; DTO &amp;gt;&amp;gt;&lt;br&gt;&lt;/span&gt;OrderTypeDTO" style="swimlane;fontStyle=1;align=center;verticalAlign=top;childLayout=stackLayout;horizontal=1;startSize=44;horizontalStack=0;resizeParent=1;resizeParentMax=0;resizeLast=0;collapsible=1;marginBottom=0;whiteSpace=wrap;html=1;" parent="1" vertex="1">
          <mxGeometry x="-710" y="-387" width="220" height="78" as="geometry">
            <mxRectangle x="1520" y="174" width="100" height="44" as="alternateBounds" />
          </mxGeometry>
        </mxCell>
        <mxCell id="v8E98mAkS4Zb0eujBMSa-71" value="- status: OrderStatusEnum" style="text;strokeColor=none;fillColor=none;align=left;verticalAlign=top;spacingLeft=4;spacingRight=4;overflow=hidden;rotatable=0;points=[[0,0.5],[1,0.5]];portConstraint=eastwest;whiteSpace=wrap;html=1;" parent="v8E98mAkS4Zb0eujBMSa-66" vertex="1">
          <mxGeometry y="44" width="220" height="26" as="geometry" />
        </mxCell>
        <mxCell id="v8E98mAkS4Zb0eujBMSa-72" value="" style="line;strokeWidth=1;fillColor=none;align=left;verticalAlign=middle;spacingTop=-1;spacingLeft=3;spacingRight=3;rotatable=0;labelPosition=right;points=[];portConstraint=eastwest;strokeColor=inherit;" parent="v8E98mAkS4Zb0eujBMSa-66" vertex="1">
          <mxGeometry y="70" width="220" height="8" as="geometry" />
        </mxCell>
        <mxCell id="v8E98mAkS4Zb0eujBMSa-81" value="SessionManager" style="swimlane;fontStyle=1;align=center;verticalAlign=top;childLayout=stackLayout;horizontal=1;startSize=44;horizontalStack=0;resizeParent=1;resizeParentMax=0;resizeLast=0;collapsible=1;marginBottom=0;whiteSpace=wrap;html=1;" parent="1" vertex="1">
          <mxGeometry x="70" y="-623" width="300" height="130" as="geometry" />
        </mxCell>
        <mxCell id="v8E98mAkS4Zb0eujBMSa-82" value="- session_engine: Session" style="text;strokeColor=none;fillColor=none;align=left;verticalAlign=top;spacingLeft=4;spacingRight=4;overflow=hidden;rotatable=0;points=[[0,0.5],[1,0.5]];portConstraint=eastwest;whiteSpace=wrap;html=1;" parent="v8E98mAkS4Zb0eujBMSa-81" vertex="1">
          <mxGeometry y="44" width="300" height="26" as="geometry" />
        </mxCell>
        <mxCell id="v8E98mAkS4Zb0eujBMSa-83" value="" style="line;strokeWidth=1;fillColor=none;align=left;verticalAlign=middle;spacingTop=-1;spacingLeft=3;spacingRight=3;rotatable=0;labelPosition=right;points=[];portConstraint=eastwest;strokeColor=inherit;" parent="v8E98mAkS4Zb0eujBMSa-81" vertex="1">
          <mxGeometry y="70" width="300" height="8" as="geometry" />
        </mxCell>
        <mxCell id="v8E98mAkS4Zb0eujBMSa-84" value="+ wrap_session(): Session" style="text;strokeColor=none;fillColor=none;align=left;verticalAlign=top;spacingLeft=4;spacingRight=4;overflow=hidden;rotatable=0;points=[[0,0.5],[1,0.5]];portConstraint=eastwest;whiteSpace=wrap;html=1;" parent="v8E98mAkS4Zb0eujBMSa-81" vertex="1">
          <mxGeometry y="78" width="300" height="26" as="geometry" />
        </mxCell>
        <mxCell id="v8E98mAkS4Zb0eujBMSa-85" value="+ get_session(): Session" style="text;strokeColor=none;fillColor=none;align=left;verticalAlign=top;spacingLeft=4;spacingRight=4;overflow=hidden;rotatable=0;points=[[0,0.5],[1,0.5]];portConstraint=eastwest;whiteSpace=wrap;html=1;" parent="v8E98mAkS4Zb0eujBMSa-81" vertex="1">
          <mxGeometry y="104" width="300" height="26" as="geometry" />
        </mxCell>
        <mxCell id="v8E98mAkS4Zb0eujBMSa-86" style="edgeStyle=orthogonalEdgeStyle;rounded=0;orthogonalLoop=1;jettySize=auto;html=1;endArrow=none;endFill=0;entryX=0;entryY=0.25;entryDx=0;entryDy=0;exitX=1.005;exitY=0.115;exitDx=0;exitDy=0;exitPerimeter=0;" parent="1" source="v8E98mAkS4Zb0eujBMSa-15" target="XG4IslfV-Pxhvq0_3yna-9" edge="1">
          <mxGeometry relative="1" as="geometry" />
        </mxCell>
        <mxCell id="v8E98mAkS4Zb0eujBMSa-120" style="edgeStyle=orthogonalEdgeStyle;rounded=0;orthogonalLoop=1;jettySize=auto;html=1;exitX=0.552;exitY=0.001;exitDx=0;exitDy=0;endArrow=none;endFill=0;entryX=0;entryY=0.75;entryDx=0;entryDy=0;exitPerimeter=0;" parent="1" source="v8E98mAkS4Zb0eujBMSa-95" target="v8E98mAkS4Zb0eujBMSa-116" edge="1">
          <mxGeometry relative="1" as="geometry" />
        </mxCell>
        <mxCell id="v8E98mAkS4Zb0eujBMSa-121" style="edgeStyle=orthogonalEdgeStyle;rounded=0;orthogonalLoop=1;jettySize=auto;html=1;exitX=0.666;exitY=0.001;exitDx=0;exitDy=0;endArrow=none;endFill=0;entryX=0;entryY=0.5;entryDx=0;entryDy=0;exitPerimeter=0;" parent="1" source="v8E98mAkS4Zb0eujBMSa-95" target="v8E98mAkS4Zb0eujBMSa-104" edge="1">
          <mxGeometry relative="1" as="geometry" />
        </mxCell>
        <mxCell id="v8E98mAkS4Zb0eujBMSa-122" style="edgeStyle=orthogonalEdgeStyle;rounded=0;orthogonalLoop=1;jettySize=auto;html=1;endArrow=none;endFill=0;entryX=0.785;entryY=1.006;entryDx=0;entryDy=0;exitX=1;exitY=0.5;exitDx=0;exitDy=0;entryPerimeter=0;" parent="1" source="v8E98mAkS4Zb0eujBMSa-100" target="n5RtKLMIV_oeWOQwG9p4-47" edge="1">
          <mxGeometry relative="1" as="geometry" />
        </mxCell>
        <mxCell id="n5RtKLMIV_oeWOQwG9p4-45" style="edgeStyle=orthogonalEdgeStyle;rounded=0;orthogonalLoop=1;jettySize=auto;html=1;exitX=0;exitY=0.5;exitDx=0;exitDy=0;endArrow=none;endFill=0;" parent="1" source="v8E98mAkS4Zb0eujBMSa-96" target="n5RtKLMIV_oeWOQwG9p4-36" edge="1">
          <mxGeometry relative="1" as="geometry" />
        </mxCell>
        <mxCell id="n5RtKLMIV_oeWOQwG9p4-49" style="edgeStyle=orthogonalEdgeStyle;rounded=0;orthogonalLoop=1;jettySize=auto;html=1;entryX=1;entryY=0.5;entryDx=0;entryDy=0;exitX=0.371;exitY=-0.005;exitDx=0;exitDy=0;endArrow=none;endFill=0;exitPerimeter=0;" parent="1" source="v8E98mAkS4Zb0eujBMSa-95" target="v8E98mAkS4Zb0eujBMSa-11" edge="1">
          <mxGeometry relative="1" as="geometry" />
        </mxCell>
        <mxCell id="v8E98mAkS4Zb0eujBMSa-95" value="&lt;span style=&quot;font-weight: normal;&quot;&gt;&amp;lt;&amp;lt; controller &amp;gt;&amp;gt;&lt;br&gt;&lt;/span&gt;OrderController" style="swimlane;fontStyle=1;align=center;verticalAlign=top;childLayout=stackLayout;horizontal=1;startSize=44;horizontalStack=0;resizeParent=1;resizeParentMax=0;resizeLast=0;collapsible=1;marginBottom=0;whiteSpace=wrap;html=1;" parent="1" vertex="1">
          <mxGeometry x="-410" y="200" width="450" height="244" as="geometry" />
        </mxCell>
        <mxCell id="v8E98mAkS4Zb0eujBMSa-96" value="- order_service: OrderService" style="text;strokeColor=none;fillColor=none;align=left;verticalAlign=top;spacingLeft=4;spacingRight=4;overflow=hidden;rotatable=0;points=[[0,0.5],[1,0.5]];portConstraint=eastwest;whiteSpace=wrap;html=1;" parent="v8E98mAkS4Zb0eujBMSa-95" vertex="1">
          <mxGeometry y="44" width="450" height="26" as="geometry" />
        </mxCell>
        <mxCell id="v8E98mAkS4Zb0eujBMSa-101" value="- order_type_service: OrderService" style="text;strokeColor=none;fillColor=none;align=left;verticalAlign=top;spacingLeft=4;spacingRight=4;overflow=hidden;rotatable=0;points=[[0,0.5],[1,0.5]];portConstraint=eastwest;whiteSpace=wrap;html=1;" parent="v8E98mAkS4Zb0eujBMSa-95" vertex="1">
          <mxGeometry y="70" width="450" height="26" as="geometry" />
        </mxCell>
        <mxCell id="v8E98mAkS4Zb0eujBMSa-102" value="- order_status_service: OrderService" style="text;strokeColor=none;fillColor=none;align=left;verticalAlign=top;spacingLeft=4;spacingRight=4;overflow=hidden;rotatable=0;points=[[0,0.5],[1,0.5]];portConstraint=eastwest;whiteSpace=wrap;html=1;" parent="v8E98mAkS4Zb0eujBMSa-95" vertex="1">
          <mxGeometry y="96" width="450" height="26" as="geometry" />
        </mxCell>
        <mxCell id="v8E98mAkS4Zb0eujBMSa-98" value="- user: Set&amp;lt;str&amp;gt;" style="text;strokeColor=none;fillColor=none;align=left;verticalAlign=top;spacingLeft=4;spacingRight=4;overflow=hidden;rotatable=0;points=[[0,0.5],[1,0.5]];portConstraint=eastwest;whiteSpace=wrap;html=1;" parent="v8E98mAkS4Zb0eujBMSa-95" vertex="1">
          <mxGeometry y="122" width="450" height="26" as="geometry" />
        </mxCell>
        <mxCell id="v8E98mAkS4Zb0eujBMSa-99" value="" style="line;strokeWidth=1;fillColor=none;align=left;verticalAlign=middle;spacingTop=-1;spacingLeft=3;spacingRight=3;rotatable=0;labelPosition=right;points=[];portConstraint=eastwest;strokeColor=inherit;" parent="v8E98mAkS4Zb0eujBMSa-95" vertex="1">
          <mxGeometry y="148" width="450" height="8" as="geometry" />
        </mxCell>
        <mxCell id="v8E98mAkS4Zb0eujBMSa-100" value="+ update_order (&lt;br&gt;&lt;span style=&quot;&quot;&gt;&lt;span style=&quot;white-space: pre;&quot;&gt;&amp;nbsp;&amp;nbsp;&amp;nbsp;&amp;nbsp;&lt;/span&gt;&lt;/span&gt;user: UserDTO,&lt;br&gt;&lt;span style=&quot;&quot;&gt;&lt;span style=&quot;white-space: pre;&quot;&gt;&amp;nbsp;&amp;nbsp;&amp;nbsp;&amp;nbsp;&lt;/span&gt;&lt;/span&gt;order: Order, order_type: OrderType,&lt;br&gt;&lt;span style=&quot;&quot;&gt;&lt;span style=&quot;white-space: pre;&quot;&gt;&amp;nbsp;&amp;nbsp;&amp;nbsp;&amp;nbsp;&lt;/span&gt;&lt;/span&gt;order_update_data: OrderUpdateDTO&lt;br&gt;): OrderDTO" style="text;strokeColor=none;fillColor=none;align=left;verticalAlign=top;spacingLeft=4;spacingRight=4;overflow=hidden;rotatable=0;points=[[0,0.5],[1,0.5]];portConstraint=eastwest;whiteSpace=wrap;html=1;" parent="v8E98mAkS4Zb0eujBMSa-95" vertex="1">
          <mxGeometry y="156" width="450" height="88" as="geometry" />
        </mxCell>
        <mxCell id="v8E98mAkS4Zb0eujBMSa-114" style="edgeStyle=orthogonalEdgeStyle;rounded=0;orthogonalLoop=1;jettySize=auto;html=1;endArrow=block;endFill=0;exitX=1;exitY=0.5;exitDx=0;exitDy=0;" parent="1" source="v8E98mAkS4Zb0eujBMSa-104" target="v8E98mAkS4Zb0eujBMSa-15" edge="1">
          <mxGeometry relative="1" as="geometry" />
        </mxCell>
        <mxCell id="v8E98mAkS4Zb0eujBMSa-133" style="edgeStyle=orthogonalEdgeStyle;rounded=0;orthogonalLoop=1;jettySize=auto;html=1;exitX=0;exitY=0.5;exitDx=0;exitDy=0;entryX=-0.002;entryY=0.087;entryDx=0;entryDy=0;endArrow=none;endFill=0;entryPerimeter=0;" parent="1" source="v8E98mAkS4Zb0eujBMSa-109" target="v8E98mAkS4Zb0eujBMSa-111" edge="1">
          <mxGeometry relative="1" as="geometry">
            <Array as="points">
              <mxPoint y="-175" />
              <mxPoint y="110" />
            </Array>
          </mxGeometry>
        </mxCell>
        <mxCell id="v8E98mAkS4Zb0eujBMSa-104" value="&lt;span style=&quot;font-weight: normal;&quot;&gt;&amp;lt;&amp;lt; service &amp;gt;&amp;gt;&lt;br&gt;&lt;/span&gt;OrderService" style="swimlane;fontStyle=1;align=center;verticalAlign=top;childLayout=stackLayout;horizontal=1;startSize=44;horizontalStack=0;resizeParent=1;resizeParentMax=0;resizeLast=0;collapsible=1;marginBottom=0;whiteSpace=wrap;html=1;" parent="1" vertex="1">
          <mxGeometry x="100" y="-240" width="300" height="78" as="geometry" />
        </mxCell>
        <mxCell id="v8E98mAkS4Zb0eujBMSa-108" value="" style="line;strokeWidth=1;fillColor=none;align=left;verticalAlign=middle;spacingTop=-1;spacingLeft=3;spacingRight=3;rotatable=0;labelPosition=right;points=[];portConstraint=eastwest;strokeColor=inherit;" parent="v8E98mAkS4Zb0eujBMSa-104" vertex="1">
          <mxGeometry y="44" width="300" height="8" as="geometry" />
        </mxCell>
        <mxCell id="v8E98mAkS4Zb0eujBMSa-109" value="+ read_one(params : Map): Order" style="text;strokeColor=none;fillColor=none;align=left;verticalAlign=top;spacingLeft=4;spacingRight=4;overflow=hidden;rotatable=0;points=[[0,0.5],[1,0.5]];portConstraint=eastwest;whiteSpace=wrap;html=1;" parent="v8E98mAkS4Zb0eujBMSa-104" vertex="1">
          <mxGeometry y="52" width="300" height="26" as="geometry" />
        </mxCell>
        <mxCell id="v8E98mAkS4Zb0eujBMSa-115" style="edgeStyle=orthogonalEdgeStyle;rounded=0;orthogonalLoop=1;jettySize=auto;html=1;exitX=1;exitY=0.5;exitDx=0;exitDy=0;entryX=0.909;entryY=1.034;entryDx=0;entryDy=0;entryPerimeter=0;endArrow=block;endFill=0;" parent="1" source="v8E98mAkS4Zb0eujBMSa-113" target="v8E98mAkS4Zb0eujBMSa-134" edge="1">
          <mxGeometry relative="1" as="geometry">
            <mxPoint x="1140" y="-900" as="targetPoint" />
          </mxGeometry>
        </mxCell>
        <mxCell id="v8E98mAkS4Zb0eujBMSa-132" style="edgeStyle=orthogonalEdgeStyle;rounded=0;orthogonalLoop=1;jettySize=auto;html=1;endArrow=none;endFill=0;" parent="1" source="v8E98mAkS4Zb0eujBMSa-111" target="v8E98mAkS4Zb0eujBMSa-123" edge="1">
          <mxGeometry relative="1" as="geometry" />
        </mxCell>
        <mxCell id="v8E98mAkS4Zb0eujBMSa-111" value="&lt;span style=&quot;font-weight: normal;&quot;&gt;&amp;lt;&amp;lt; service &amp;gt;&amp;gt;&lt;br&gt;&lt;/span&gt;OrderStatusService" style="swimlane;fontStyle=1;align=center;verticalAlign=top;childLayout=stackLayout;horizontal=1;startSize=44;horizontalStack=0;resizeParent=1;resizeParentMax=0;resizeLast=0;collapsible=1;marginBottom=0;whiteSpace=wrap;html=1;" parent="1" vertex="1">
          <mxGeometry x="100" y="90" width="300" height="224" as="geometry" />
        </mxCell>
        <mxCell id="v8E98mAkS4Zb0eujBMSa-112" value="" style="line;strokeWidth=1;fillColor=none;align=left;verticalAlign=middle;spacingTop=-1;spacingLeft=3;spacingRight=3;rotatable=0;labelPosition=right;points=[];portConstraint=eastwest;strokeColor=inherit;" parent="v8E98mAkS4Zb0eujBMSa-111" vertex="1">
          <mxGeometry y="44" width="300" height="8" as="geometry" />
        </mxCell>
        <mxCell id="v8E98mAkS4Zb0eujBMSa-113" value="+ read_one(params : Map): BaseEntity" style="text;strokeColor=none;fillColor=none;align=left;verticalAlign=top;spacingLeft=4;spacingRight=4;overflow=hidden;rotatable=0;points=[[0,0.5],[1,0.5]];portConstraint=eastwest;whiteSpace=wrap;html=1;" parent="v8E98mAkS4Zb0eujBMSa-111" vertex="1">
          <mxGeometry y="52" width="300" height="26" as="geometry" />
        </mxCell>
        <mxCell id="v8E98mAkS4Zb0eujBMSa-136" value="+ create(&lt;br&gt;&lt;span style=&quot;white-space: pre;&quot;&gt;&#x9;&lt;/span&gt;item: OrderStatusCreateDTO&lt;br&gt;): OrderStatus" style="text;strokeColor=none;fillColor=none;align=left;verticalAlign=top;spacingLeft=4;spacingRight=4;overflow=hidden;rotatable=0;points=[[0,0.5],[1,0.5]];portConstraint=eastwest;whiteSpace=wrap;html=1;" parent="v8E98mAkS4Zb0eujBMSa-111" vertex="1">
          <mxGeometry y="78" width="300" height="58" as="geometry" />
        </mxCell>
        <mxCell id="n5RtKLMIV_oeWOQwG9p4-47" value="+ raise_incorrect_status_update(&lt;br&gt;&lt;span style=&quot;&quot;&gt;&lt;span style=&quot;&quot;&gt;&amp;nbsp;&amp;nbsp;&amp;nbsp;&amp;nbsp;&lt;/span&gt;&lt;/span&gt;user: UserDTO,&lt;br&gt;&lt;span style=&quot;&quot;&gt;&lt;span style=&quot;&quot;&gt;&amp;nbsp;&amp;nbsp;&amp;nbsp;&amp;nbsp;&lt;/span&gt;&lt;/span&gt;old_status:&amp;nbsp;OrderStatusEnum,&lt;br&gt;&lt;span style=&quot;&quot;&gt;&lt;span style=&quot;white-space: pre;&quot;&gt;&amp;nbsp;&amp;nbsp;&amp;nbsp;&amp;nbsp;&lt;/span&gt;&lt;/span&gt;new_status:&amp;nbsp;OrderStatusEnum&lt;br&gt;): void" style="text;strokeColor=none;fillColor=none;align=left;verticalAlign=top;spacingLeft=4;spacingRight=4;overflow=hidden;rotatable=0;points=[[0,0.5],[1,0.5]];portConstraint=eastwest;whiteSpace=wrap;html=1;" parent="v8E98mAkS4Zb0eujBMSa-111" vertex="1">
          <mxGeometry y="136" width="300" height="88" as="geometry" />
        </mxCell>
        <mxCell id="v8E98mAkS4Zb0eujBMSa-116" value="&lt;span style=&quot;font-weight: normal;&quot;&gt;&amp;lt;&amp;lt; service &amp;gt;&amp;gt;&lt;br&gt;&lt;/span&gt;OrderTypeService" style="swimlane;fontStyle=1;align=center;verticalAlign=top;childLayout=stackLayout;horizontal=1;startSize=44;horizontalStack=0;resizeParent=1;resizeParentMax=0;resizeLast=0;collapsible=1;marginBottom=0;whiteSpace=wrap;html=1;" parent="1" vertex="1">
          <mxGeometry x="100" y="-369" width="300" height="78" as="geometry" />
        </mxCell>
        <mxCell id="v8E98mAkS4Zb0eujBMSa-117" value="" style="line;strokeWidth=1;fillColor=none;align=left;verticalAlign=middle;spacingTop=-1;spacingLeft=3;spacingRight=3;rotatable=0;labelPosition=right;points=[];portConstraint=eastwest;strokeColor=inherit;" parent="v8E98mAkS4Zb0eujBMSa-116" vertex="1">
          <mxGeometry y="44" width="300" height="8" as="geometry" />
        </mxCell>
        <mxCell id="v8E98mAkS4Zb0eujBMSa-118" value="+ read_one(params : Map): BaseEntity" style="text;strokeColor=none;fillColor=none;align=left;verticalAlign=top;spacingLeft=4;spacingRight=4;overflow=hidden;rotatable=0;points=[[0,0.5],[1,0.5]];portConstraint=eastwest;whiteSpace=wrap;html=1;" parent="v8E98mAkS4Zb0eujBMSa-116" vertex="1">
          <mxGeometry y="52" width="300" height="26" as="geometry" />
        </mxCell>
        <mxCell id="v8E98mAkS4Zb0eujBMSa-119" style="edgeStyle=orthogonalEdgeStyle;rounded=0;orthogonalLoop=1;jettySize=auto;html=1;exitX=1;exitY=0.25;exitDx=0;exitDy=0;entryX=0.274;entryY=1.029;entryDx=0;entryDy=0;entryPerimeter=0;endArrow=block;endFill=0;" parent="1" source="v8E98mAkS4Zb0eujBMSa-116" target="v8E98mAkS4Zb0eujBMSa-134" edge="1">
          <mxGeometry relative="1" as="geometry">
            <mxPoint x="1120" y="-596" as="sourcePoint" />
            <mxPoint x="930" y="-930" as="targetPoint" />
          </mxGeometry>
        </mxCell>
        <mxCell id="v8E98mAkS4Zb0eujBMSa-126" style="edgeStyle=orthogonalEdgeStyle;rounded=0;orthogonalLoop=1;jettySize=auto;html=1;exitX=1;exitY=0.5;exitDx=0;exitDy=0;entryX=0.663;entryY=1.013;entryDx=0;entryDy=0;entryPerimeter=0;endArrow=block;endFill=0;" parent="1" source="v8E98mAkS4Zb0eujBMSa-123" target="v8E98mAkS4Zb0eujBMSa-134" edge="1">
          <mxGeometry relative="1" as="geometry">
            <mxPoint x="1060" y="-950" as="targetPoint" />
          </mxGeometry>
        </mxCell>
        <mxCell id="v8E98mAkS4Zb0eujBMSa-140" style="edgeStyle=orthogonalEdgeStyle;rounded=0;orthogonalLoop=1;jettySize=auto;html=1;exitX=1;exitY=0.5;exitDx=0;exitDy=0;entryX=0;entryY=0.25;entryDx=0;entryDy=0;endArrow=none;endFill=0;" parent="1" source="v8E98mAkS4Zb0eujBMSa-125" target="qYNk-IU5I3HGj0Sha-Av-2" edge="1">
          <mxGeometry relative="1" as="geometry" />
        </mxCell>
        <mxCell id="v8E98mAkS4Zb0eujBMSa-123" value="&lt;span style=&quot;font-weight: normal;&quot;&gt;&amp;lt;&amp;lt; service &amp;gt;&amp;gt;&lt;br&gt;&lt;/span&gt;OrderConfirmationService" style="swimlane;fontStyle=1;align=center;verticalAlign=top;childLayout=stackLayout;horizontal=1;startSize=44;horizontalStack=0;resizeParent=1;resizeParentMax=0;resizeLast=0;collapsible=1;marginBottom=0;whiteSpace=wrap;html=1;" parent="1" vertex="1">
          <mxGeometry x="100" y="-58" width="300" height="110" as="geometry" />
        </mxCell>
        <mxCell id="v8E98mAkS4Zb0eujBMSa-124" value="" style="line;strokeWidth=1;fillColor=none;align=left;verticalAlign=middle;spacingTop=-1;spacingLeft=3;spacingRight=3;rotatable=0;labelPosition=right;points=[];portConstraint=eastwest;strokeColor=inherit;" parent="v8E98mAkS4Zb0eujBMSa-123" vertex="1">
          <mxGeometry y="44" width="300" height="8" as="geometry" />
        </mxCell>
        <mxCell id="v8E98mAkS4Zb0eujBMSa-125" value="+ create(&lt;br&gt;&lt;span style=&quot;white-space: pre;&quot;&gt;&#x9;&lt;/span&gt;item: OrderConfirmationCreateDTO&lt;br&gt;): OrderConfirmation" style="text;strokeColor=none;fillColor=none;align=left;verticalAlign=top;spacingLeft=4;spacingRight=4;overflow=hidden;rotatable=0;points=[[0,0.5],[1,0.5]];portConstraint=eastwest;whiteSpace=wrap;html=1;" parent="v8E98mAkS4Zb0eujBMSa-123" vertex="1">
          <mxGeometry y="52" width="300" height="58" as="geometry" />
        </mxCell>
        <mxCell id="v8E98mAkS4Zb0eujBMSa-137" style="edgeStyle=orthogonalEdgeStyle;rounded=0;orthogonalLoop=1;jettySize=auto;html=1;exitX=1;exitY=0.5;exitDx=0;exitDy=0;entryX=0;entryY=0.5;entryDx=0;entryDy=0;endArrow=none;endFill=0;" parent="1" source="v8E98mAkS4Zb0eujBMSa-109" target="XG4IslfV-Pxhvq0_3yna-78" edge="1">
          <mxGeometry relative="1" as="geometry" />
        </mxCell>
        <mxCell id="v8E98mAkS4Zb0eujBMSa-138" style="edgeStyle=orthogonalEdgeStyle;rounded=0;orthogonalLoop=1;jettySize=auto;html=1;exitX=1;exitY=0.5;exitDx=0;exitDy=0;entryX=0;entryY=0.25;entryDx=0;entryDy=0;endArrow=none;endFill=0;" parent="1" source="v8E98mAkS4Zb0eujBMSa-136" target="XG4IslfV-Pxhvq0_3yna-81" edge="1">
          <mxGeometry relative="1" as="geometry" />
        </mxCell>
        <mxCell id="v8E98mAkS4Zb0eujBMSa-139" style="edgeStyle=orthogonalEdgeStyle;rounded=0;orthogonalLoop=1;jettySize=auto;html=1;exitX=1;exitY=0.5;exitDx=0;exitDy=0;entryX=0;entryY=0.5;entryDx=0;entryDy=0;endArrow=none;endFill=0;" parent="1" source="v8E98mAkS4Zb0eujBMSa-118" target="XG4IslfV-Pxhvq0_3yna-76" edge="1">
          <mxGeometry relative="1" as="geometry" />
        </mxCell>
        <mxCell id="n5RtKLMIV_oeWOQwG9p4-1" style="edgeStyle=orthogonalEdgeStyle;rounded=0;orthogonalLoop=1;jettySize=auto;html=1;endArrow=block;endFill=0;exitX=0;exitY=0.25;exitDx=0;exitDy=0;entryX=0.5;entryY=1;entryDx=0;entryDy=0;" parent="1" source="v8E98mAkS4Zb0eujBMSa-40" target="v8E98mAkS4Zb0eujBMSa-36" edge="1">
          <mxGeometry relative="1" as="geometry">
            <mxPoint x="-1140" y="-796" as="sourcePoint" />
            <mxPoint x="-1150" y="-1290" as="targetPoint" />
          </mxGeometry>
        </mxCell>
        <mxCell id="n5RtKLMIV_oeWOQwG9p4-4" value="&amp;lt;&amp;lt; DTO &amp;gt;&amp;gt;&lt;br style=&quot;border-color: var(--border-color); font-weight: 400;&quot;&gt;TimeStampedDTO" style="swimlane;fontStyle=1;align=center;verticalAlign=top;childLayout=stackLayout;horizontal=1;startSize=40;horizontalStack=0;resizeParent=1;resizeParentMax=0;resizeLast=0;collapsible=1;marginBottom=0;whiteSpace=wrap;html=1;" parent="1" vertex="1">
          <mxGeometry x="-810" y="-650" width="220" height="100" as="geometry" />
        </mxCell>
        <mxCell id="n5RtKLMIV_oeWOQwG9p4-5" value="- createdAt: timestamp" style="text;strokeColor=none;fillColor=none;align=left;verticalAlign=top;spacingLeft=4;spacingRight=4;overflow=hidden;rotatable=0;points=[[0,0.5],[1,0.5]];portConstraint=eastwest;whiteSpace=wrap;html=1;" parent="n5RtKLMIV_oeWOQwG9p4-4" vertex="1">
          <mxGeometry y="40" width="220" height="26" as="geometry" />
        </mxCell>
        <mxCell id="n5RtKLMIV_oeWOQwG9p4-6" value="- updatedAt: timestamp" style="text;strokeColor=none;fillColor=none;align=left;verticalAlign=top;spacingLeft=4;spacingRight=4;overflow=hidden;rotatable=0;points=[[0,0.5],[1,0.5]];portConstraint=eastwest;whiteSpace=wrap;html=1;" parent="n5RtKLMIV_oeWOQwG9p4-4" vertex="1">
          <mxGeometry y="66" width="220" height="26" as="geometry" />
        </mxCell>
        <mxCell id="n5RtKLMIV_oeWOQwG9p4-7" value="" style="line;strokeWidth=1;fillColor=none;align=left;verticalAlign=middle;spacingTop=-1;spacingLeft=3;spacingRight=3;rotatable=0;labelPosition=right;points=[];portConstraint=eastwest;strokeColor=inherit;" parent="n5RtKLMIV_oeWOQwG9p4-4" vertex="1">
          <mxGeometry y="92" width="220" height="8" as="geometry" />
        </mxCell>
        <mxCell id="n5RtKLMIV_oeWOQwG9p4-8" value="&amp;lt;&amp;lt; DTO &amp;gt;&amp;gt;&lt;br style=&quot;border-color: var(--border-color); font-weight: 400;&quot;&gt;TimeStampedWithIdDTO" style="swimlane;fontStyle=1;align=center;verticalAlign=top;childLayout=stackLayout;horizontal=1;startSize=40;horizontalStack=0;resizeParent=1;resizeParentMax=0;resizeLast=0;collapsible=1;marginBottom=0;whiteSpace=wrap;html=1;" parent="1" vertex="1">
          <mxGeometry x="-810" y="-504" width="220" height="74" as="geometry" />
        </mxCell>
        <mxCell id="n5RtKLMIV_oeWOQwG9p4-10" value="- id: uuid" style="text;strokeColor=none;fillColor=none;align=left;verticalAlign=top;spacingLeft=4;spacingRight=4;overflow=hidden;rotatable=0;points=[[0,0.5],[1,0.5]];portConstraint=eastwest;whiteSpace=wrap;html=1;" parent="n5RtKLMIV_oeWOQwG9p4-8" vertex="1">
          <mxGeometry y="40" width="220" height="26" as="geometry" />
        </mxCell>
        <mxCell id="n5RtKLMIV_oeWOQwG9p4-11" value="" style="line;strokeWidth=1;fillColor=none;align=left;verticalAlign=middle;spacingTop=-1;spacingLeft=3;spacingRight=3;rotatable=0;labelPosition=right;points=[];portConstraint=eastwest;strokeColor=inherit;" parent="n5RtKLMIV_oeWOQwG9p4-8" vertex="1">
          <mxGeometry y="66" width="220" height="8" as="geometry" />
        </mxCell>
        <mxCell id="n5RtKLMIV_oeWOQwG9p4-18" style="edgeStyle=orthogonalEdgeStyle;rounded=0;orthogonalLoop=1;jettySize=auto;html=1;entryX=1;entryY=0.5;entryDx=0;entryDy=0;endArrow=none;endFill=0;exitX=0.002;exitY=0.899;exitDx=0;exitDy=0;exitPerimeter=0;" parent="1" source="n5RtKLMIV_oeWOQwG9p4-17" target="v8E98mAkS4Zb0eujBMSa-50" edge="1">
          <mxGeometry relative="1" as="geometry" />
        </mxCell>
        <mxCell id="n5RtKLMIV_oeWOQwG9p4-19" style="edgeStyle=orthogonalEdgeStyle;rounded=0;orthogonalLoop=1;jettySize=auto;html=1;endArrow=none;endFill=0;" parent="1" source="n5RtKLMIV_oeWOQwG9p4-13" target="v8E98mAkS4Zb0eujBMSa-95" edge="1">
          <mxGeometry relative="1" as="geometry">
            <mxPoint x="-185" y="509.9999999999991" as="targetPoint" />
          </mxGeometry>
        </mxCell>
        <mxCell id="n5RtKLMIV_oeWOQwG9p4-13" value="AuthManager" style="swimlane;fontStyle=1;align=center;verticalAlign=top;childLayout=stackLayout;horizontal=1;startSize=26;horizontalStack=0;resizeParent=1;resizeParentMax=0;resizeLast=0;collapsible=1;marginBottom=0;whiteSpace=wrap;html=1;" parent="1" vertex="1">
          <mxGeometry x="-335" y="675" width="300" height="190" as="geometry" />
        </mxCell>
        <mxCell id="n5RtKLMIV_oeWOQwG9p4-14" value="" style="line;strokeWidth=1;fillColor=none;align=left;verticalAlign=middle;spacingTop=-1;spacingLeft=3;spacingRight=3;rotatable=0;labelPosition=right;points=[];portConstraint=eastwest;strokeColor=inherit;" parent="n5RtKLMIV_oeWOQwG9p4-13" vertex="1">
          <mxGeometry y="26" width="300" height="8" as="geometry" />
        </mxCell>
        <mxCell id="n5RtKLMIV_oeWOQwG9p4-15" value="+ get_token(request: Request): str" style="text;strokeColor=none;fillColor=none;align=left;verticalAlign=top;spacingLeft=4;spacingRight=4;overflow=hidden;rotatable=0;points=[[0,0.5],[1,0.5]];portConstraint=eastwest;whiteSpace=wrap;html=1;" parent="n5RtKLMIV_oeWOQwG9p4-13" vertex="1">
          <mxGeometry y="34" width="300" height="28" as="geometry" />
        </mxCell>
        <mxCell id="n5RtKLMIV_oeWOQwG9p4-17" value="+ decode_token_data(token: str): Map" style="text;strokeColor=none;fillColor=none;align=left;verticalAlign=top;spacingLeft=4;spacingRight=4;overflow=hidden;rotatable=0;points=[[0,0.5],[1,0.5]];portConstraint=eastwest;whiteSpace=wrap;html=1;" parent="n5RtKLMIV_oeWOQwG9p4-13" vertex="1">
          <mxGeometry y="62" width="300" height="28" as="geometry" />
        </mxCell>
        <mxCell id="n5RtKLMIV_oeWOQwG9p4-16" value="+ get_user_data(token_data: Map): UserDTO" style="text;strokeColor=none;fillColor=none;align=left;verticalAlign=top;spacingLeft=4;spacingRight=4;overflow=hidden;rotatable=0;points=[[0,0.5],[1,0.5]];portConstraint=eastwest;whiteSpace=wrap;html=1;" parent="n5RtKLMIV_oeWOQwG9p4-13" vertex="1">
          <mxGeometry y="90" width="300" height="28" as="geometry" />
        </mxCell>
        <mxCell id="n5RtKLMIV_oeWOQwG9p4-28" value="+ check_required_roles(&lt;br&gt;&lt;span style=&quot;white-space: pre;&quot;&gt;&#x9;&lt;/span&gt;user: UserDTO,&lt;br&gt;&lt;span style=&quot;white-space: pre;&quot;&gt;&#x9;&lt;/span&gt;roles: List&amp;lt;UserRole&amp;gt;&lt;br&gt;): bool" style="text;strokeColor=none;fillColor=none;align=left;verticalAlign=top;spacingLeft=4;spacingRight=4;overflow=hidden;rotatable=0;points=[[0,0.5],[1,0.5]];portConstraint=eastwest;whiteSpace=wrap;html=1;" parent="n5RtKLMIV_oeWOQwG9p4-13" vertex="1">
          <mxGeometry y="118" width="300" height="72" as="geometry" />
        </mxCell>
        <mxCell id="n5RtKLMIV_oeWOQwG9p4-26" style="edgeStyle=orthogonalEdgeStyle;rounded=0;orthogonalLoop=1;jettySize=auto;html=1;endArrow=none;endFill=0;exitX=0;exitY=0.5;exitDx=0;exitDy=0;" parent="1" source="n5RtKLMIV_oeWOQwG9p4-31" target="n5RtKLMIV_oeWOQwG9p4-13" edge="1">
          <mxGeometry relative="1" as="geometry" />
        </mxCell>
        <mxCell id="n5RtKLMIV_oeWOQwG9p4-21" value="KeycloakClient" style="swimlane;fontStyle=1;align=center;verticalAlign=top;childLayout=stackLayout;horizontal=1;startSize=26;horizontalStack=0;resizeParent=1;resizeParentMax=0;resizeLast=0;collapsible=1;marginBottom=0;whiteSpace=wrap;html=1;" parent="1" vertex="1">
          <mxGeometry x="100" y="674" width="300" height="230" as="geometry" />
        </mxCell>
        <mxCell id="n5RtKLMIV_oeWOQwG9p4-33" value="- url: str" style="text;strokeColor=none;fillColor=none;align=left;verticalAlign=top;spacingLeft=4;spacingRight=4;overflow=hidden;rotatable=0;points=[[0,0.5],[1,0.5]];portConstraint=eastwest;whiteSpace=wrap;html=1;" parent="n5RtKLMIV_oeWOQwG9p4-21" vertex="1">
          <mxGeometry y="26" width="300" height="28" as="geometry" />
        </mxCell>
        <mxCell id="n5RtKLMIV_oeWOQwG9p4-34" value="- realm: str" style="text;strokeColor=none;fillColor=none;align=left;verticalAlign=top;spacingLeft=4;spacingRight=4;overflow=hidden;rotatable=0;points=[[0,0.5],[1,0.5]];portConstraint=eastwest;whiteSpace=wrap;html=1;" parent="n5RtKLMIV_oeWOQwG9p4-21" vertex="1">
          <mxGeometry y="54" width="300" height="28" as="geometry" />
        </mxCell>
        <mxCell id="n5RtKLMIV_oeWOQwG9p4-31" value="- client_id: str" style="text;strokeColor=none;fillColor=none;align=left;verticalAlign=top;spacingLeft=4;spacingRight=4;overflow=hidden;rotatable=0;points=[[0,0.5],[1,0.5]];portConstraint=eastwest;whiteSpace=wrap;html=1;" parent="n5RtKLMIV_oeWOQwG9p4-21" vertex="1">
          <mxGeometry y="82" width="300" height="28" as="geometry" />
        </mxCell>
        <mxCell id="n5RtKLMIV_oeWOQwG9p4-32" value="- client_secret: str" style="text;strokeColor=none;fillColor=none;align=left;verticalAlign=top;spacingLeft=4;spacingRight=4;overflow=hidden;rotatable=0;points=[[0,0.5],[1,0.5]];portConstraint=eastwest;whiteSpace=wrap;html=1;" parent="n5RtKLMIV_oeWOQwG9p4-21" vertex="1">
          <mxGeometry y="110" width="300" height="28" as="geometry" />
        </mxCell>
        <mxCell id="n5RtKLMIV_oeWOQwG9p4-22" value="" style="line;strokeWidth=1;fillColor=none;align=left;verticalAlign=middle;spacingTop=-1;spacingLeft=3;spacingRight=3;rotatable=0;labelPosition=right;points=[];portConstraint=eastwest;strokeColor=inherit;" parent="n5RtKLMIV_oeWOQwG9p4-21" vertex="1">
          <mxGeometry y="138" width="300" height="8" as="geometry" />
        </mxCell>
        <mxCell id="n5RtKLMIV_oeWOQwG9p4-23" value="+ get_user_by_id(id: uuid): UserDTO" style="text;strokeColor=none;fillColor=none;align=left;verticalAlign=top;spacingLeft=4;spacingRight=4;overflow=hidden;rotatable=0;points=[[0,0.5],[1,0.5]];portConstraint=eastwest;whiteSpace=wrap;html=1;" parent="n5RtKLMIV_oeWOQwG9p4-21" vertex="1">
          <mxGeometry y="146" width="300" height="28" as="geometry" />
        </mxCell>
        <mxCell id="n5RtKLMIV_oeWOQwG9p4-29" value="+ get_auth_token_by_secret(): str" style="text;strokeColor=none;fillColor=none;align=left;verticalAlign=top;spacingLeft=4;spacingRight=4;overflow=hidden;rotatable=0;points=[[0,0.5],[1,0.5]];portConstraint=eastwest;whiteSpace=wrap;html=1;" parent="n5RtKLMIV_oeWOQwG9p4-21" vertex="1">
          <mxGeometry y="174" width="300" height="28" as="geometry" />
        </mxCell>
        <mxCell id="n5RtKLMIV_oeWOQwG9p4-35" value="+ verify_token(token: str): bool" style="text;strokeColor=none;fillColor=none;align=left;verticalAlign=top;spacingLeft=4;spacingRight=4;overflow=hidden;rotatable=0;points=[[0,0.5],[1,0.5]];portConstraint=eastwest;whiteSpace=wrap;html=1;" parent="n5RtKLMIV_oeWOQwG9p4-21" vertex="1">
          <mxGeometry y="202" width="300" height="28" as="geometry" />
        </mxCell>
        <mxCell id="6yedOQVHtbCPOtE9xHXn-2" style="edgeStyle=orthogonalEdgeStyle;rounded=0;orthogonalLoop=1;jettySize=auto;html=1;exitX=0.477;exitY=1.054;exitDx=0;exitDy=0;exitPerimeter=0;entryX=0;entryY=0.5;entryDx=0;entryDy=0;endArrow=none;endFill=0;" edge="1" parent="1" source="n5RtKLMIV_oeWOQwG9p4-42" target="XG4IslfV-Pxhvq0_3yna-55">
          <mxGeometry relative="1" as="geometry" />
        </mxCell>
        <mxCell id="n5RtKLMIV_oeWOQwG9p4-36" value="&lt;span style=&quot;font-weight: normal;&quot;&gt;&amp;lt;&amp;lt; DTO &amp;gt;&amp;gt;&lt;br&gt;&lt;/span&gt;OrderUpdateDTO" style="swimlane;fontStyle=1;align=center;verticalAlign=top;childLayout=stackLayout;horizontal=1;startSize=44;horizontalStack=0;resizeParent=1;resizeParentMax=0;resizeLast=0;collapsible=1;marginBottom=0;whiteSpace=wrap;html=1;" parent="1" vertex="1">
          <mxGeometry x="-840" y="218" width="220" height="78" as="geometry">
            <mxRectangle x="1520" y="174" width="100" height="44" as="alternateBounds" />
          </mxGeometry>
        </mxCell>
        <mxCell id="n5RtKLMIV_oeWOQwG9p4-41" value="- status: OrderStatusEnum" style="text;strokeColor=none;fillColor=none;align=left;verticalAlign=top;spacingLeft=4;spacingRight=4;overflow=hidden;rotatable=0;points=[[0,0.5],[1,0.5]];portConstraint=eastwest;whiteSpace=wrap;html=1;" parent="n5RtKLMIV_oeWOQwG9p4-36" vertex="1">
          <mxGeometry y="44" width="220" height="26" as="geometry" />
        </mxCell>
        <mxCell id="n5RtKLMIV_oeWOQwG9p4-42" value="" style="line;strokeWidth=1;fillColor=none;align=left;verticalAlign=middle;spacingTop=-1;spacingLeft=3;spacingRight=3;rotatable=0;labelPosition=right;points=[];portConstraint=eastwest;strokeColor=inherit;" parent="n5RtKLMIV_oeWOQwG9p4-36" vertex="1">
          <mxGeometry y="70" width="220" height="8" as="geometry" />
        </mxCell>
        <mxCell id="n5RtKLMIV_oeWOQwG9p4-43" style="edgeStyle=orthogonalEdgeStyle;rounded=0;orthogonalLoop=1;jettySize=auto;html=1;endArrow=block;endFill=0;exitX=0;exitY=0.25;exitDx=0;exitDy=0;entryX=0.25;entryY=1;entryDx=0;entryDy=0;" parent="1" source="n5RtKLMIV_oeWOQwG9p4-36" target="v8E98mAkS4Zb0eujBMSa-36" edge="1">
          <mxGeometry relative="1" as="geometry">
            <mxPoint x="-1030" y="-260" as="sourcePoint" />
            <mxPoint x="-1170" y="-1290" as="targetPoint" />
          </mxGeometry>
        </mxCell>
        <mxCell id="f_zCQfHJY7QkMIpprzHP-8" style="edgeStyle=orthogonalEdgeStyle;rounded=0;orthogonalLoop=1;jettySize=auto;html=1;endArrow=none;endFill=0;" parent="1" source="f_zCQfHJY7QkMIpprzHP-4" target="v8E98mAkS4Zb0eujBMSa-123" edge="1">
          <mxGeometry relative="1" as="geometry" />
        </mxCell>
        <mxCell id="f_zCQfHJY7QkMIpprzHP-4" value="&lt;span style=&quot;font-weight: normal;&quot;&gt;&amp;lt;&amp;lt; DTO &amp;gt;&amp;gt;&lt;br&gt;&lt;/span&gt;OrderConfirmationCreateDTO" style="swimlane;fontStyle=1;align=center;verticalAlign=top;childLayout=stackLayout;horizontal=1;startSize=44;horizontalStack=0;resizeParent=1;resizeParentMax=0;resizeLast=0;collapsible=1;marginBottom=0;whiteSpace=wrap;html=1;" parent="1" vertex="1">
          <mxGeometry x="-710" y="-41" width="220" height="78" as="geometry">
            <mxRectangle x="1520" y="174" width="100" height="44" as="alternateBounds" />
          </mxGeometry>
        </mxCell>
        <mxCell id="f_zCQfHJY7QkMIpprzHP-5" value="- user: UserDTO" style="text;strokeColor=none;fillColor=none;align=left;verticalAlign=top;spacingLeft=4;spacingRight=4;overflow=hidden;rotatable=0;points=[[0,0.5],[1,0.5]];portConstraint=eastwest;whiteSpace=wrap;html=1;" parent="f_zCQfHJY7QkMIpprzHP-4" vertex="1">
          <mxGeometry y="44" width="220" height="26" as="geometry" />
        </mxCell>
        <mxCell id="f_zCQfHJY7QkMIpprzHP-6" value="" style="line;strokeWidth=1;fillColor=none;align=left;verticalAlign=middle;spacingTop=-1;spacingLeft=3;spacingRight=3;rotatable=0;labelPosition=right;points=[];portConstraint=eastwest;strokeColor=inherit;" parent="f_zCQfHJY7QkMIpprzHP-4" vertex="1">
          <mxGeometry y="70" width="220" height="8" as="geometry" />
        </mxCell>
        <mxCell id="f_zCQfHJY7QkMIpprzHP-9" style="edgeStyle=orthogonalEdgeStyle;rounded=0;orthogonalLoop=1;jettySize=auto;html=1;endArrow=block;endFill=0;entryX=0.75;entryY=1;entryDx=0;entryDy=0;exitX=0;exitY=0.5;exitDx=0;exitDy=0;" parent="1" source="f_zCQfHJY7QkMIpprzHP-4" target="v8E98mAkS4Zb0eujBMSa-36" edge="1">
          <mxGeometry relative="1" as="geometry">
            <mxPoint x="-890" y="100" as="sourcePoint" />
            <mxPoint x="-1130" y="-1240" as="targetPoint" />
          </mxGeometry>
        </mxCell>
        <mxCell id="f_zCQfHJY7QkMIpprzHP-11" style="edgeStyle=orthogonalEdgeStyle;rounded=0;orthogonalLoop=1;jettySize=auto;html=1;endArrow=none;endFill=0;exitX=1;exitY=0.5;exitDx=0;exitDy=0;entryX=-0.005;entryY=0.095;entryDx=0;entryDy=0;entryPerimeter=0;" parent="1" source="f_zCQfHJY7QkMIpprzHP-7" target="v8E98mAkS4Zb0eujBMSa-113" edge="1">
          <mxGeometry relative="1" as="geometry">
            <mxPoint x="-630" y="-21" as="sourcePoint" />
            <mxPoint x="510" y="-89" as="targetPoint" />
          </mxGeometry>
        </mxCell>
        <mxCell id="6yedOQVHtbCPOtE9xHXn-1" style="edgeStyle=orthogonalEdgeStyle;rounded=0;orthogonalLoop=1;jettySize=auto;html=1;endArrow=block;endFill=0;exitX=0.75;exitY=1;exitDx=0;exitDy=0;entryX=0;entryY=1;entryDx=0;entryDy=0;" edge="1" parent="1" source="v8E98mAkS4Zb0eujBMSa-49" target="v8E98mAkS4Zb0eujBMSa-36">
          <mxGeometry relative="1" as="geometry">
            <mxPoint x="-700" y="248" as="sourcePoint" />
            <mxPoint x="-1085" y="-700" as="targetPoint" />
          </mxGeometry>
        </mxCell>
        <mxCell id="6yedOQVHtbCPOtE9xHXn-4" style="edgeStyle=orthogonalEdgeStyle;rounded=0;orthogonalLoop=1;jettySize=auto;html=1;exitX=0.75;exitY=1;exitDx=0;exitDy=0;entryX=0;entryY=0.5;entryDx=0;entryDy=0;endArrow=none;endFill=0;" edge="1" parent="1" source="v8E98mAkS4Zb0eujBMSa-40" target="XG4IslfV-Pxhvq0_3yna-52">
          <mxGeometry relative="1" as="geometry">
            <mxPoint x="-785" y="306" as="sourcePoint" />
            <mxPoint x="780" y="690" as="targetPoint" />
          </mxGeometry>
        </mxCell>
      </root>
    </mxGraphModel>
  </diagram>
</mxfile>
